<?xml version="1.0" encoding="UTF-8" standalone="no"?>
<!DOCTYPE svg PUBLIC "-//W3C//DTD SVG 1.1//EN" "http://www.w3.org/Graphics/SVG/1.1/DTD/svg11.dtd">
<svg width="100%" height="100%" viewBox="0 0 40 40" version="1.1" xmlns="http://www.w3.org/2000/svg" xmlns:xlink="http://www.w3.org/1999/xlink" xml:space="preserve" xmlns:serif="http://www.serif.com/" style="fill-rule:evenodd;clip-rule:evenodd;stroke-linejoin:round;stroke-miterlimit:2;">
    <g id="Dark">
        <g transform="matrix(-0.913258,0,0,0.913258,34.7038,1.73484)">
            <rect x="20" y="2" width="18" height="36" style="fill:none;"/>
            <clipPath id="_clip1">
                <rect x="20" y="2" width="18" height="36"/>
            </clipPath>
            <g clip-path="url(#_clip1)">
                <g transform="matrix(-1.06331,0,0,1.06331,38.7121,-3.51508)">
                    <path d="M17.598,8.094C25.336,8.094 31.619,14.377 31.619,22.115C31.619,29.853 25.336,36.136 17.598,36.136C9.86,36.136 3.577,29.853 3.577,22.115C3.577,14.377 9.86,8.094 17.598,8.094ZM17.598,11.599C23.402,11.599 28.114,16.311 28.114,22.115C28.114,27.919 23.402,32.631 17.598,32.631C11.794,32.631 7.082,27.919 7.082,22.115C7.082,16.311 11.794,11.599 17.598,11.599Z" style="fill:rgb(235,91,12);"/>
                </g>
                <g transform="matrix(-0.456238,0,0,0.456238,28.0288,9.91034)">
                    <circle cx="17.598" cy="22.115" r="14.021" style="fill:rgb(235,91,12);"/>
                </g>
            </g>
        </g>
        <g transform="matrix(0.68254,-2.59184e-18,3.68314e-18,-1,4.66513,40)">
            <rect x="20" y="2" width="4.935" height="36" style="fill:rgb(235,91,12);"/>
            <clipPath id="_clip2">
                <rect x="20" y="2" width="4.935" height="36"/>
            </clipPath>
            <g clip-path="url(#_clip2)">
                <g transform="matrix(16.3688,0,0,1,-304.909,0)">
                    <rect x="18.264" y="20" width="3.473" height="18" style="fill:rgb(128,128,128);"/>
                </g>
            </g>
        </g>
        <g transform="matrix(0.509585,0,0,1.45398,11.8355,20.8093)">
            <rect x="22.676" y="6.475" width="14.164" height="2.343" style="fill:rgb(235,91,12);"/>
        </g>
        <g transform="matrix(0.684888,0,0,1.45398,7.91166,13.0216)">
            <rect x="22.676" y="6.475" width="14.164" height="2.343" style="fill:rgb(235,91,12);"/>
        </g>
        <g transform="matrix(0.856805,0,0,1.45398,4.00953,4.7314)">
            <rect x="22.676" y="6.475" width="14.164" height="2.343" style="fill:rgb(128,128,128);"/>
        </g>
        <g transform="matrix(1.01917,0,0,1.45398,0.327685,-3.02752)">
            <rect x="22.676" y="6.475" width="14.164" height="2.343" style="fill:rgb(128,128,128);"/>
        </g>
    </g>
</svg>
