<svg width="40" height="40" viewBox="0 0 40 40" fill="none" xmlns="http://www.w3.org/2000/svg">
<path fill-rule="evenodd" clip-rule="evenodd" d="M19.4407 32.8684C16.5877 34.2451 15.0554 34.2302 10 36C9.33362 36.2332 7 37 7 37H10C10 37 19.0444 37.0191 22 37C22.5089 36.9967 23.0153 36.9766 23.5197 36.9474L19.4407 32.8684Z" fill="#6CC149"/>
<path fill-rule="evenodd" clip-rule="evenodd" d="M16.5859 30.0137C16.4002 29.828 16.2528 29.6076 16.1523 29.3649C16.0517 29.1223 16 28.8622 16 28.5996C16 28.337 16.0517 28.0769 16.1523 27.8343C16.2528 27.5917 16.4002 27.3712 16.5859 27.1856L27.1895 16.5859C27.3752 16.4002 27.5957 16.2528 27.8384 16.1523C28.0812 16.0517 28.3413 16 28.604 16C28.8667 16 29.1268 16.0517 29.3696 16.1523C29.6123 16.2528 29.8328 16.4002 30.0185 16.5859L31.3231 17.8927C32.4833 16.0615 33.3841 14.0784 34 12C33.9687 14.4286 33.4524 16.8265 32.4815 19.0529C32.8419 19.4138 33.1225 19.6948 33.2021 19.7744L38.5029 25.0751C38.8448 23.4053 39.0114 21.7044 39 20C38.872 13.8868 37.8616 7.82422 36 2C32.6027 6.96924 26.2286 10.6714 21 12C16.2657 13.1442 13.4665 13.2668 9.0849 14.9733C6.77747 15.7736 4.76821 17.2572 3.32409 19.2267C1.87997 21.1963 1.06937 23.5587 1 26C1.05655 27.5418 1.44283 29.0536 2.13281 30.4336C2.8228 31.8136 3.80048 33.0297 5 34C9.19298 33.3483 13.3007 32.2333 17.2477 30.6754L16.5859 30.0137Z" fill="#6CC149"/>
<path fill-rule="evenodd" clip-rule="evenodd" d="M40 29.4L31.788 21.188L31.381 21.595L31.376 21.59L25.582 27.384L24.267 26.108V30.521H28.653L27.161 28.963L31.783 24.341L36.84 29.399L27.818 38.421L29.397 40L38.419 30.978L38.421 30.979L40 29.4Z" fill="#3DABC4"/>
<path fill-rule="evenodd" clip-rule="evenodd" d="M29.347 27.479L30.839 29.037L26.217 33.659L21.16 28.601L30.182 19.579L28.603 18L19.581 27.022L19.579 27.021L18 28.6L26.212 36.812L26.619 36.405L26.624 36.41L32.418 30.616L33.733 31.892V27.479H29.347Z" fill="#8F989D"/>
</svg>
