<svg width="40" height="40" fill="none" xmlns="http://www.w3.org/2000/svg"><path d="M35.8 15.3c-.8-2.2-2.1-4.8-3.3-6.6-1-1.6-2.7-2.9-6.2-2.1-4.4.9-13.4 4.1-18.6 6.4-2.8 1.4-4.2 3.7-3.6 7 .5 2.5 1.3 5.1 2.4 7.2 1.8 3.3 4.7 3.8 8.2 2.6l.3-.1c0 1.5 0 4.3.3 5.1.2.7.8.8 1 .4.3-.8.7-1.7 1.3-2.4.4.8 1.5 3.2 1.9 3.7.9 1.4 2.2 1.8 3.6 1.3l2.4-.8c.1-.1.1-.1.2 0l1.3.9.3-.1.4-1.6.2-.2 2.8-1c1.4-.8 1.7-2.2 1.4-3.4l-1.3-4.2c.8 0 1.5.2 2.2.6.8.3.9-.5.6-1-.6-1-2-2.8-2.9-3.8l2.5-1.2c2.6-1.4 4-2.8 2.6-6.7z" fill="#FFB400"/><path d="M8 9c.3.4.9.4 1.2.1l.8-.6 2.2 2.7.4-.2-2.4-2.7.6-.6c.4-.3.5-.9.2-1.3l-.4-.4c-.3-.4-1-.4-1.3-.1L7.7 7.3c-.4.3-.5.9-.1 1.3L8 9zM19.7 4.4l.8.1-.2 3.8.3-.1.3-3.7.7.1c.5 0 1-.4 1-.9l.1-.5c0-.5-.4-1-.9-1L20 2c-.6 0-1 .3-1.1.9l-.1.5c0 .5.4 1 .9 1z" fill="#323232"/><path opacity=".09" d="M30.7 23.3L15 30.6v-.9l15.7-6.4z" fill="url(#paint0_linear_1404_460)"/><path d="M20.1 25.2c-.7 0-1.5-.2-2.1-.8V24h.4c.3.3 1 .8 1.9.6.9-.1 2.3-.8 3.9-3.5l.4-.1.1.4c-1.7 2.8-3.3 3.6-4.3 3.7l-.3.1z" fill="#323232"/><path d="M19.3 20c-.8 1-2.7 2.8-5.5 3-2.8.2-5-2.2-4.7-5 .5-3.4 4.2-5 8.6-3.6 2.1-3.1 3.9-3.6 5.4-3.8 1.9-.3 4.5.5 5.2 3.2.9 2.9-.9 5.2-3.3 5.9-2.2.8-4.5.4-5.7.3z" fill="#fff"/><path d="M15.5 20.1c.8 0 1.5-.7 1.5-1.5 0-.9-.8-1.6-1.6-1.6-.9 0-1.5.8-1.5 1.6 0 .9.7 1.6 1.6 1.5zM23 17.7c.8 0 1.5-.7 1.5-1.6 0-.8-.7-1.5-1.5-1.5-1 0-1.6.7-1.6 1.6 0 .8.7 1.5 1.6 1.5zM19.6 32c-.2 0-.4-.2-.4-.4-.1-.2 0-.5.3-.6 1.5-.4 2.8-.8 4.4-1.5 1.4-.5 3.1-1.2 4.4-2 .2-.1.5 0 .7.2 0 .2 0 .5-.2.6l-4.6 2.1-4.5 1.6h-.1zM21.4 35c-.2 0-.4-.1-.4-.3-.1-.3 0-.5.2-.6l4.2-1.4 3.9-1.8c.2-.2.5-.1.6.1.1.3.1.5-.2.7-.9.5-2.2 1.1-4 1.8L21.5 35h-.1z" fill="#323232"/><defs><linearGradient id="paint0_linear_1404_460" x1="22.643" y1="26.612" x2="22.869" y2="27.125" gradientUnits="userSpaceOnUse"><stop/><stop offset="1" stop-color="#fff"/></linearGradient></defs></svg>