<svg id="svg" version="1.1" xmlns="http://www.w3.org/2000/svg" width="16"
     height="16" viewBox="0, 0, 400,400">
    <g id="svgg">
        <path id="path0"
              d="M134.667 27.067 C 134.520 27.213,134.400 27.663,134.400 28.067 C 134.400 28.713,134.042 28.800,131.400 28.800 C 128.467 28.800,128.400 28.822,128.400 29.800 C 128.400 30.733,128.267 30.800,126.400 30.800 C 124.546 30.800,124.400 30.871,124.400 31.777 C 124.400 32.640,124.202 32.768,122.700 32.877 C 121.403 32.971,120.909 33.208,120.616 33.875 C 120.404 34.357,119.896 34.838,119.486 34.946 C 119.076 35.053,118.647 35.497,118.533 35.933 C 118.419 36.369,117.969 36.819,117.533 36.933 C 117.097 37.047,116.653 37.476,116.546 37.886 C 116.438 38.296,115.957 38.804,115.475 39.016 C 114.808 39.309,114.571 39.803,114.477 41.100 C 114.368 42.602,114.240 42.800,113.377 42.800 C 112.602 42.800,112.400 43.006,112.400 43.800 C 112.400 44.514,112.184 44.800,111.643 44.800 C 110.757 44.800,110.400 45.547,110.400 47.405 C 110.400 48.489,110.229 48.769,109.500 48.872 C 108.674 48.989,108.590 49.239,108.482 51.900 C 108.370 54.681,108.325 54.800,107.382 54.800 C 106.427 54.800,106.400 54.883,106.400 57.772 C 106.400 60.550,106.341 60.753,105.500 60.872 L 104.600 61.000 104.600 76.600 L 104.600 92.200 105.500 92.328 C 106.351 92.449,106.400 92.636,106.400 95.795 C 106.400 99.658,106.600 100.400,107.643 100.400 C 108.285 100.400,108.400 100.704,108.400 102.400 C 108.400 104.267,108.467 104.400,109.400 104.400 C 110.354 104.400,110.400 104.509,110.400 106.767 C 110.400 109.650,110.657 110.400,111.643 110.400 C 112.184 110.400,112.400 110.686,112.400 111.400 C 112.400 112.194,112.601 112.400,113.378 112.400 C 114.261 112.400,114.368 112.585,114.478 114.300 C 114.582 115.921,114.732 116.219,115.500 116.328 C 116.151 116.420,116.400 116.724,116.400 117.428 C 116.400 118.192,116.609 118.400,117.377 118.400 C 118.240 118.400,118.368 118.598,118.477 120.100 C 118.571 121.397,118.808 121.891,119.475 122.184 C 119.957 122.396,120.438 122.904,120.546 123.314 C 120.653 123.724,121.097 124.153,121.533 124.267 C 121.969 124.381,122.419 124.831,122.533 125.267 C 122.647 125.703,123.114 126.157,123.570 126.276 C 124.027 126.396,124.400 126.813,124.400 127.204 C 124.400 128.049,125.173 128.400,127.033 128.400 C 128.224 128.400,128.400 128.528,128.400 129.400 C 128.400 130.192,128.602 130.400,129.372 130.400 C 130.076 130.400,130.380 130.649,130.472 131.300 C 130.581 132.066,130.879 132.218,132.475 132.321 C 134.056 132.423,134.369 132.579,134.475 133.321 C 134.589 134.121,134.860 134.211,137.500 134.318 C 140.286 134.430,140.400 134.474,140.400 135.424 L 140.400 136.413 151.100 136.307 L 161.800 136.200 161.928 135.300 C 162.041 134.506,162.287 134.400,164.028 134.400 C 165.865 134.400,166.000 134.331,166.000 133.400 C 166.000 132.467,166.133 132.400,168.000 132.400 C 169.867 132.400,170.000 132.333,170.000 131.400 C 170.000 130.600,170.200 130.400,171.000 130.400 C 171.800 130.400,172.000 130.200,172.000 129.400 C 172.000 128.528,172.176 128.400,173.367 128.400 C 175.229 128.400,176.000 128.049,176.000 127.201 C 176.000 126.773,176.401 126.386,177.000 126.236 C 177.881 126.015,178.000 125.771,178.000 124.192 C 178.000 122.547,178.082 122.400,179.000 122.400 C 179.800 122.400,180.000 122.200,180.000 121.400 C 180.000 120.600,180.200 120.400,181.000 120.400 C 181.933 120.400,182.000 120.267,182.000 118.400 C 182.000 116.533,182.067 116.400,183.000 116.400 C 183.933 116.400,184.000 116.267,184.000 114.400 C 184.000 112.518,184.061 112.400,185.030 112.400 C 186.061 112.400,186.061 112.399,185.930 109.283 L 185.800 106.166 186.923 106.332 L 188.046 106.498 187.923 101.332 L 187.800 96.166 188.900 96.329 L 190.000 96.491 190.000 87.645 L 190.000 78.800 189.011 78.800 L 188.021 78.800 187.911 72.900 C 187.803 67.159,187.776 66.997,186.917 66.874 C 186.113 66.760,186.024 66.492,185.917 63.874 C 185.810 61.240,185.725 60.989,184.900 60.872 C 184.106 60.759,184.000 60.513,184.000 58.772 C 184.000 56.935,183.931 56.800,183.000 56.800 C 182.067 56.800,182.000 56.667,182.000 54.800 C 182.000 52.933,181.933 52.800,181.000 52.800 C 180.067 52.800,180.000 52.667,180.000 50.800 C 180.000 48.933,179.933 48.800,179.000 48.800 C 178.200 48.800,178.000 48.600,178.000 47.800 C 178.000 47.006,177.799 46.800,177.022 46.800 C 176.139 46.800,176.032 46.615,175.922 44.900 C 175.818 43.279,175.668 42.981,174.900 42.872 C 174.249 42.780,174.000 42.476,174.000 41.772 C 174.000 41.002,173.792 40.800,173.000 40.800 C 172.200 40.800,172.000 40.600,172.000 39.800 C 172.000 39.000,171.800 38.800,171.000 38.800 C 170.200 38.800,170.000 38.600,170.000 37.800 C 170.000 37.008,169.798 36.800,169.028 36.800 C 168.324 36.800,168.020 36.551,167.928 35.900 C 167.819 35.132,167.521 34.982,165.900 34.878 C 164.185 34.768,164.000 34.661,164.000 33.778 C 164.000 33.001,163.794 32.800,163.000 32.800 C 162.286 32.800,162.000 32.584,162.000 32.043 C 162.000 31.153,161.252 30.800,159.367 30.800 C 158.292 30.800,158.000 30.638,158.000 30.043 C 158.000 29.011,157.256 28.800,153.611 28.800 C 150.612 28.800,150.477 28.760,150.236 27.800 L 149.985 26.800 142.459 26.800 C 138.320 26.800,134.813 26.920,134.667 27.067 M251.764 27.800 C 251.527 28.744,251.361 28.800,248.800 28.800 C 246.239 28.800,246.073 28.856,245.836 29.800 C 245.615 30.681,245.371 30.800,243.792 30.800 C 242.147 30.800,242.000 30.882,242.000 31.800 C 242.000 32.733,241.867 32.800,240.000 32.800 C 238.133 32.800,238.000 32.867,238.000 33.800 C 238.000 34.600,237.800 34.800,237.000 34.800 C 236.200 34.800,236.000 35.000,236.000 35.800 C 236.000 36.600,235.800 36.800,235.000 36.800 C 234.200 36.800,234.000 37.000,234.000 37.800 C 234.000 38.600,233.800 38.800,233.000 38.800 C 232.200 38.800,232.000 39.000,232.000 39.800 C 232.000 40.600,231.800 40.800,231.000 40.800 C 230.200 40.800,230.000 41.000,230.000 41.800 C 230.000 42.600,229.800 42.800,229.000 42.800 C 228.200 42.800,228.000 43.000,228.000 43.800 C 228.000 44.600,227.800 44.800,227.000 44.800 C 226.200 44.800,226.000 45.000,226.000 45.800 C 226.000 46.600,225.800 46.800,225.000 46.800 C 224.067 46.800,224.000 46.933,224.000 48.800 C 224.000 50.667,223.933 50.800,223.000 50.800 C 222.067 50.800,222.000 50.933,222.000 52.800 C 222.000 54.667,221.933 54.800,221.000 54.800 C 220.067 54.800,220.000 54.933,220.000 56.800 C 220.000 58.667,219.933 58.800,219.000 58.800 C 218.069 58.800,218.000 58.935,218.000 60.772 C 218.000 62.513,217.894 62.759,217.100 62.872 C 216.235 62.995,216.200 63.156,216.200 67.017 L 216.200 71.033 215.100 70.871 L 214.000 70.709 214.000 87.555 L 214.000 104.400 215.000 104.400 C 215.979 104.400,216.000 104.464,216.000 107.445 L 216.000 110.491 217.100 110.329 C 218.196 110.167,218.199 110.175,218.063 112.283 C 217.931 114.330,217.960 114.400,218.963 114.400 C 219.941 114.400,220.000 114.514,220.000 116.400 C 220.000 118.255,220.071 118.400,220.978 118.400 C 221.861 118.400,221.968 118.585,222.078 120.300 C 222.182 121.921,222.332 122.219,223.100 122.328 C 223.751 122.420,224.000 122.724,224.000 123.428 C 224.000 124.198,224.208 124.400,225.000 124.400 C 225.800 124.400,226.000 124.600,226.000 125.400 C 226.000 126.200,226.200 126.400,227.000 126.400 C 227.800 126.400,228.000 126.600,228.000 127.400 C 228.000 128.200,228.200 128.400,229.000 128.400 C 229.800 128.400,230.000 128.600,230.000 129.400 C 230.000 130.192,230.202 130.400,230.972 130.400 C 231.676 130.400,231.980 130.649,232.072 131.300 C 232.181 132.068,232.479 132.218,234.100 132.322 C 235.815 132.432,236.000 132.539,236.000 133.422 C 236.000 134.329,236.145 134.400,238.000 134.400 C 239.696 134.400,240.000 134.515,240.000 135.157 C 240.000 136.337,240.597 136.400,251.800 136.400 C 263.003 136.400,263.600 136.337,263.600 135.157 C 263.600 134.515,263.904 134.400,265.600 134.400 C 267.467 134.400,267.600 134.333,267.600 133.400 C 267.600 132.467,267.733 132.400,269.600 132.400 C 271.467 132.400,271.600 132.333,271.600 131.400 C 271.600 130.528,271.776 130.400,272.967 130.400 C 274.837 130.400,275.600 130.048,275.600 129.185 C 275.600 128.733,275.942 128.407,276.500 128.328 C 277.078 128.246,277.446 127.878,277.528 127.300 C 277.620 126.649,277.924 126.400,278.628 126.400 C 279.398 126.400,279.600 126.192,279.600 125.400 C 279.600 124.600,279.800 124.400,280.600 124.400 C 281.392 124.400,281.600 124.198,281.600 123.428 C 281.600 122.724,281.849 122.420,282.500 122.328 C 283.070 122.247,283.446 121.879,283.525 121.325 C 283.602 120.779,283.979 120.402,284.525 120.325 C 285.264 120.219,285.419 119.904,285.522 118.300 C 285.632 116.585,285.739 116.400,286.622 116.400 C 287.391 116.400,287.600 116.192,287.600 115.428 C 287.600 114.724,287.849 114.420,288.500 114.328 C 289.268 114.219,289.418 113.921,289.522 112.300 C 289.632 110.585,289.739 110.400,290.622 110.400 C 291.529 110.400,291.600 110.255,291.600 108.400 C 291.600 106.533,291.667 106.400,292.600 106.400 C 293.533 106.400,293.600 106.267,293.600 104.400 C 293.600 102.704,293.715 102.400,294.357 102.400 C 295.401 102.400,295.600 101.658,295.600 97.767 C 295.600 94.442,295.613 94.400,296.600 94.400 L 297.600 94.400 297.600 88.428 C 297.600 82.539,297.613 82.454,298.500 82.328 C 299.379 82.203,299.403 82.068,299.511 76.500 L 299.622 70.800 298.611 70.800 L 297.600 70.800 297.600 64.800 L 297.600 58.800 296.600 58.800 C 295.622 58.800,295.600 58.733,295.600 55.800 C 295.600 52.882,295.573 52.800,294.618 52.800 C 293.685 52.800,293.631 52.668,293.518 50.100 C 293.415 47.743,293.286 47.350,292.500 47.005 C 291.948 46.763,291.600 46.260,291.600 45.705 C 291.600 45.012,291.371 44.800,290.622 44.800 C 289.739 44.800,289.632 44.615,289.522 42.900 C 289.418 41.279,289.268 40.981,288.500 40.872 C 287.849 40.780,287.600 40.476,287.600 39.772 C 287.600 39.002,287.392 38.800,286.600 38.800 C 285.800 38.800,285.600 38.600,285.600 37.800 C 285.600 37.000,285.400 36.800,284.600 36.800 C 283.800 36.800,283.600 36.600,283.600 35.800 C 283.600 35.008,283.398 34.800,282.628 34.800 C 281.924 34.800,281.620 34.551,281.528 33.900 C 281.419 33.132,281.121 32.982,279.500 32.878 C 277.785 32.768,277.600 32.661,277.600 31.778 C 277.600 31.029,277.388 30.800,276.695 30.800 C 276.140 30.800,275.637 30.452,275.395 29.900 C 275.032 29.073,274.698 28.991,271.300 28.885 C 267.666 28.772,267.600 28.752,267.600 27.785 L 267.600 26.800 259.808 26.800 L 252.015 26.800 251.764 27.800 M143.507 27.486 C 142.906 27.577,141.826 27.579,141.107 27.490 C 140.388 27.401,140.880 27.326,142.200 27.324 C 143.520 27.322,144.108 27.395,143.507 27.486 M261.107 27.486 C 260.506 27.577,259.426 27.579,258.707 27.490 C 257.988 27.401,258.480 27.326,259.800 27.324 C 261.120 27.322,261.708 27.395,261.107 27.486 M136.400 28.600 C 135.085 29.352,134.436 29.360,135.424 28.613 C 135.851 28.290,136.470 28.026,136.800 28.027 C 137.148 28.028,136.980 28.268,136.400 28.600 M255.200 28.263 C 252.426 29.187,252.298 29.204,252.804 28.595 C 253.076 28.268,253.861 28.014,254.549 28.032 C 255.237 28.049,255.530 28.153,255.200 28.263 M239.800 34.400 C 239.402 34.840,238.879 35.194,238.638 35.187 C 238.397 35.179,238.625 34.819,239.144 34.387 C 240.366 33.369,240.726 33.376,239.800 34.400 M171.108 40.725 C 171.206 41.018,171.023 41.107,170.633 40.957 C 170.285 40.824,170.000 40.539,170.000 40.324 C 170.000 39.798,170.909 40.127,171.108 40.725 M105.076 68.300 C 104.975 68.685,104.893 68.370,104.893 67.600 C 104.893 66.830,104.975 66.515,105.076 66.900 C 105.176 67.285,105.176 67.915,105.076 68.300 M215.447 73.065 C 214.924 74.030,214.830 74.077,214.816 73.380 C 214.807 72.929,215.013 72.347,215.273 72.087 C 216.028 71.332,216.116 71.830,215.447 73.065 M297.757 81.572 C 297.141 82.149,297.115 82.135,297.434 81.400 C 297.624 80.960,297.875 78.620,297.989 76.200 L 298.198 71.800 298.313 76.372 C 298.410 80.232,298.323 81.042,297.757 81.572 M189.200 87.600 C 189.200 93.780,189.112 94.773,188.525 95.251 C 187.923 95.741,187.888 95.714,188.204 95.000 C 188.835 93.575,188.946 80.863,188.334 80.082 C 187.853 79.468,187.870 79.455,188.500 79.949 C 189.120 80.435,189.200 81.312,189.200 87.600 M105.083 86.095 C 104.987 86.593,104.905 86.280,104.901 85.400 C 104.896 84.520,104.975 84.113,105.075 84.495 C 105.175 84.878,105.179 85.598,105.083 86.095 M187.205 103.987 C 186.724 105.149,186.000 105.638,186.000 104.800 C 186.000 104.580,186.177 104.400,186.392 104.400 C 186.608 104.400,186.900 103.942,187.040 103.381 C 187.181 102.821,187.389 102.455,187.502 102.569 C 187.615 102.682,187.482 103.320,187.205 103.987 M218.000 108.876 C 218.000 109.402,217.091 109.073,216.892 108.475 C 216.794 108.182,216.977 108.093,217.367 108.243 C 217.715 108.376,218.000 108.661,218.000 108.876 M55.300 108.662 C 55.025 108.775,54.800 109.202,54.800 109.611 C 54.800 110.216,54.443 110.379,52.900 110.478 C 51.279 110.582,50.981 110.732,50.872 111.500 C 50.769 112.229,50.489 112.400,49.405 112.400 C 47.562 112.400,46.800 112.755,46.800 113.615 C 46.800 114.067,46.458 114.393,45.900 114.472 C 45.322 114.554,44.954 114.922,44.872 115.500 C 44.780 116.151,44.476 116.400,43.772 116.400 C 43.002 116.400,42.800 116.608,42.800 117.400 C 42.800 118.200,42.600 118.400,41.800 118.400 C 41.008 118.400,40.800 118.602,40.800 119.372 C 40.800 120.076,40.551 120.380,39.900 120.472 C 39.356 120.549,38.954 120.921,38.884 121.412 C 38.820 121.859,38.370 122.399,37.884 122.612 C 37.210 122.908,36.971 123.398,36.878 124.675 C 36.778 126.049,36.599 126.373,35.878 126.475 C 35.136 126.581,34.981 126.894,34.878 128.500 C 34.780 130.033,34.614 130.400,34.021 130.400 C 33.057 130.400,32.800 131.165,32.800 134.033 C 32.800 136.126,32.708 136.400,32.008 136.400 C 30.818 136.400,30.767 137.075,30.888 151.000 L 31.000 163.800 31.900 163.928 C 32.741 164.047,32.800 164.250,32.800 167.028 C 32.800 169.917,32.827 170.000,33.782 170.000 C 34.725 170.000,34.770 170.119,34.882 172.900 C 34.989 175.540,35.079 175.811,35.879 175.925 C 36.621 176.031,36.777 176.344,36.879 177.925 C 36.982 179.521,37.134 179.819,37.900 179.928 C 38.551 180.020,38.800 180.324,38.800 181.028 C 38.800 181.798,39.008 182.000,39.800 182.000 C 40.733 182.000,40.800 182.133,40.800 184.000 C 40.800 185.867,40.867 186.000,41.800 186.000 C 42.600 186.000,42.800 186.200,42.800 187.000 C 42.800 187.800,43.000 188.000,43.800 188.000 C 44.600 188.000,44.800 188.200,44.800 189.000 C 44.800 189.800,45.000 190.000,45.800 190.000 C 46.600 190.000,46.800 190.200,46.800 191.000 C 46.800 191.800,47.000 192.000,47.800 192.000 C 48.600 192.000,48.800 192.200,48.800 193.000 C 48.800 193.800,49.000 194.000,49.800 194.000 C 50.600 194.000,50.800 194.200,50.800 195.000 C 50.800 195.792,51.002 196.000,51.772 196.000 C 52.476 196.000,52.780 196.249,52.872 196.900 C 52.981 197.668,53.279 197.818,54.900 197.922 C 56.615 198.032,56.800 198.139,56.800 199.022 C 56.800 199.929,56.945 200.000,58.800 200.000 C 60.667 200.000,60.800 200.067,60.800 201.000 C 60.800 201.933,60.933 202.000,62.800 202.000 C 64.667 202.000,64.800 202.067,64.800 203.000 L 64.800 204.000 68.800 204.000 L 72.800 204.000 72.800 205.000 L 72.800 206.000 79.600 206.000 L 86.400 206.000 86.400 205.014 C 86.400 204.042,86.453 204.027,90.300 203.914 C 93.971 203.807,94.207 203.748,94.325 202.921 C 94.431 202.179,94.744 202.023,96.325 201.921 C 97.921 201.818,98.219 201.666,98.328 200.900 C 98.420 200.249,98.724 200.000,99.428 200.000 C 100.192 200.000,100.400 199.791,100.400 199.022 C 100.400 198.139,100.585 198.032,102.300 197.922 C 103.921 197.818,104.219 197.668,104.328 196.900 C 104.420 196.249,104.724 196.000,105.428 196.000 C 106.191 196.000,106.400 195.791,106.400 195.028 C 106.400 194.324,106.649 194.020,107.300 193.928 C 108.068 193.819,108.218 193.521,108.322 191.900 C 108.432 190.185,108.539 190.000,109.422 190.000 C 110.199 190.000,110.400 189.794,110.400 189.000 C 110.400 188.200,110.600 188.000,111.400 188.000 C 112.333 188.000,112.400 187.867,112.400 186.000 C 112.400 184.133,112.467 184.000,113.400 184.000 C 114.378 184.000,114.400 183.933,114.400 181.000 C 114.400 178.067,114.422 178.000,115.400 178.000 L 116.400 178.000 116.400 173.000 L 116.400 168.000 117.400 168.000 L 118.400 168.000 118.400 162.200 L 118.400 156.400 117.400 156.400 L 116.400 156.400 116.400 151.400 L 116.400 146.400 115.400 146.400 C 114.422 146.400,114.400 146.333,114.400 143.400 C 114.400 140.467,114.378 140.400,113.400 140.400 C 112.467 140.400,112.400 140.267,112.400 138.400 C 112.400 136.533,112.333 136.400,111.400 136.400 C 110.467 136.400,110.400 136.267,110.400 134.400 C 110.400 132.545,110.329 132.400,109.422 132.400 C 108.539 132.400,108.432 132.215,108.322 130.500 C 108.218 128.879,108.068 128.581,107.300 128.472 C 106.649 128.380,106.400 128.076,106.400 127.372 C 106.400 126.602,106.192 126.400,105.400 126.400 C 104.600 126.400,104.400 126.200,104.400 125.400 C 104.400 124.600,104.200 124.400,103.400 124.400 C 102.600 124.400,102.400 124.200,102.400 123.400 C 102.400 122.600,102.200 122.400,101.400 122.400 C 100.600 122.400,100.400 122.200,100.400 121.400 C 100.400 120.600,100.200 120.400,99.400 120.400 C 98.600 120.400,98.400 120.200,98.400 119.400 C 98.400 118.600,98.200 118.400,97.400 118.400 C 96.600 118.400,96.400 118.200,96.400 117.400 C 96.400 116.608,96.198 116.400,95.428 116.400 C 94.724 116.400,94.420 116.151,94.328 115.500 C 94.219 114.732,93.921 114.582,92.300 114.478 C 90.585 114.368,90.400 114.261,90.400 113.378 C 90.400 112.471,90.255 112.400,88.400 112.400 C 86.533 112.400,86.400 112.333,86.400 111.400 C 86.400 110.469,86.265 110.400,84.428 110.400 C 82.687 110.400,82.441 110.294,82.328 109.500 L 82.200 108.600 69.000 108.529 C 61.740 108.490,55.575 108.550,55.300 108.662 M321.600 109.394 C 321.600 110.379,321.538 110.400,318.600 110.400 C 315.685 110.400,315.600 110.428,315.600 111.378 C 315.600 112.261,315.415 112.368,313.700 112.478 C 312.079 112.582,311.781 112.732,311.672 113.500 C 311.578 114.164,311.278 114.400,310.527 114.400 C 309.644 114.400,309.531 114.546,309.671 115.500 C 309.833 116.596,309.825 116.599,307.717 116.463 C 305.670 116.331,305.600 116.360,305.600 117.363 C 305.600 118.202,305.410 118.400,304.600 118.400 C 303.800 118.400,303.600 118.600,303.600 119.400 C 303.600 120.200,303.400 120.400,302.600 120.400 C 301.800 120.400,301.600 120.600,301.600 121.400 C 301.600 122.200,301.400 122.400,300.600 122.400 C 299.800 122.400,299.600 122.600,299.600 123.400 C 299.600 124.200,299.400 124.400,298.600 124.400 C 297.808 124.400,297.600 124.602,297.600 125.372 C 297.600 126.076,297.351 126.380,296.700 126.472 C 295.932 126.581,295.782 126.879,295.678 128.500 C 295.568 130.215,295.461 130.400,294.578 130.400 C 293.809 130.400,293.600 130.608,293.600 131.372 C 293.600 132.076,293.351 132.380,292.700 132.472 C 291.934 132.581,291.782 132.879,291.679 134.475 C 291.577 136.056,291.421 136.369,290.679 136.475 C 289.862 136.591,289.800 136.814,289.800 139.617 L 289.800 142.633 288.700 142.471 L 287.600 142.309 287.600 145.355 C 287.600 148.336,287.579 148.400,286.600 148.400 L 285.600 148.400 285.600 162.245 L 285.600 176.091 286.700 175.928 L 287.800 175.766 287.670 178.883 C 287.539 181.999,287.539 182.000,288.570 182.000 C 289.539 182.000,289.600 182.118,289.600 184.000 C 289.600 185.867,289.667 186.000,290.600 186.000 C 291.533 186.000,291.600 186.133,291.600 188.000 C 291.600 189.867,291.667 190.000,292.600 190.000 C 293.400 190.000,293.600 190.200,293.600 191.000 C 293.600 191.800,293.800 192.000,294.600 192.000 C 295.412 192.000,295.600 192.197,295.600 193.045 C 295.600 193.963,295.737 194.071,296.719 193.927 C 297.745 193.776,297.824 193.855,297.673 194.881 C 297.529 195.863,297.637 196.000,298.555 196.000 C 299.403 196.000,299.600 196.188,299.600 197.000 C 299.600 197.800,299.800 198.000,300.600 198.000 C 301.408 198.000,301.600 198.198,301.600 199.029 C 301.600 200.024,301.673 200.055,303.842 199.954 C 305.723 199.867,306.146 199.975,306.468 200.625 C 306.847 201.389,306.843 201.389,306.226 200.624 C 305.621 199.873,305.600 199.883,305.600 200.924 C 305.600 201.949,305.695 202.000,307.600 202.000 C 309.467 202.000,309.600 202.067,309.600 203.000 C 309.600 203.977,309.669 204.000,312.572 204.000 C 315.350 204.000,315.553 204.059,315.672 204.900 C 315.798 205.787,315.894 205.802,322.500 205.910 L 329.200 206.019 329.200 205.022 L 329.200 204.025 334.100 203.912 C 338.802 203.805,339.005 203.765,339.125 202.921 C 339.231 202.179,339.544 202.023,341.125 201.921 C 342.707 201.819,343.020 201.662,343.125 200.921 C 343.231 200.179,343.544 200.023,345.125 199.921 C 346.721 199.818,347.019 199.666,347.128 198.900 C 347.220 198.249,347.524 198.000,348.228 198.000 C 348.998 198.000,349.200 197.792,349.200 197.000 C 349.200 196.200,349.400 196.000,350.200 196.000 C 350.994 196.000,351.200 195.799,351.200 195.022 C 351.200 194.139,351.385 194.032,353.100 193.922 C 354.704 193.819,355.019 193.664,355.125 192.925 C 355.202 192.379,355.579 192.002,356.125 191.925 C 356.670 191.847,357.047 191.470,357.125 190.925 C 357.202 190.379,357.579 190.002,358.125 189.925 C 358.864 189.819,359.019 189.504,359.122 187.900 C 359.232 186.185,359.339 186.000,360.222 186.000 C 360.999 186.000,361.200 185.794,361.200 185.000 C 361.200 184.200,361.400 184.000,362.200 184.000 C 363.133 184.000,363.200 183.867,363.200 182.000 C 363.200 180.133,363.267 180.000,364.200 180.000 C 365.000 180.000,365.200 179.800,365.200 179.000 C 365.200 178.286,365.416 178.000,365.957 178.000 C 366.943 178.000,367.200 177.250,367.200 174.367 C 367.200 172.109,367.246 172.000,368.200 172.000 C 369.178 172.000,369.200 171.933,369.200 169.000 C 369.200 166.063,369.221 166.000,370.205 166.000 L 371.209 166.000 371.105 150.300 L 371.000 134.600 370.100 134.472 C 369.284 134.356,369.200 134.126,369.200 132.005 C 369.200 129.150,368.941 128.400,367.957 128.400 C 367.362 128.400,367.200 128.108,367.200 127.033 C 367.200 125.148,366.847 124.400,365.957 124.400 C 365.416 124.400,365.200 124.114,365.200 123.400 C 365.200 122.600,365.000 122.400,364.200 122.400 C 363.400 122.400,363.200 122.200,363.200 121.400 C 363.200 120.600,363.000 120.400,362.200 120.400 C 361.400 120.400,361.200 120.200,361.200 119.400 C 361.200 118.600,361.000 118.400,360.200 118.400 C 359.400 118.400,359.200 118.200,359.200 117.400 C 359.200 116.600,359.000 116.400,358.200 116.400 C 357.400 116.400,357.200 116.200,357.200 115.400 C 357.200 114.608,356.998 114.400,356.228 114.400 C 355.524 114.400,355.220 114.151,355.128 113.500 C 355.019 112.732,354.721 112.582,353.100 112.478 C 351.385 112.368,351.200 112.261,351.200 111.378 C 351.200 110.473,351.053 110.400,349.228 110.400 C 347.487 110.400,347.241 110.294,347.128 109.500 L 347.000 108.600 334.300 108.494 L 321.600 108.389 321.600 109.394 M317.760 111.761 C 317.641 112.069,317.152 112.420,316.672 112.540 C 315.820 112.753,315.822 112.741,316.744 111.979 C 317.867 111.053,318.046 111.014,317.760 111.761 M307.757 117.769 C 307.502 118.431,306.400 118.950,306.400 118.407 C 306.400 118.205,306.715 117.856,307.100 117.632 C 308.010 117.102,308.012 117.103,307.757 117.769 M299.600 125.904 C 299.600 126.071,299.236 126.435,298.791 126.713 C 298.041 127.181,298.019 127.159,298.487 126.409 C 298.991 125.603,299.600 125.326,299.600 125.904 M31.483 144.095 C 31.387 144.593,31.305 144.280,31.301 143.400 C 31.296 142.520,31.375 142.113,31.475 142.495 C 31.575 142.878,31.579 143.598,31.483 144.095 M117.600 162.947 C 117.600 164.930,117.408 166.093,116.994 166.624 C 116.425 167.353,116.406 167.327,116.694 166.200 C 116.862 165.540,117.000 163.802,117.000 162.338 C 117.000 160.874,117.135 159.760,117.300 159.862 C 117.465 159.964,117.600 161.352,117.600 162.947 M190.500 168.265 C 190.225 168.376,190.000 168.807,190.000 169.224 C 190.000 169.932,189.568 169.988,183.300 170.090 C 176.785 170.197,176.589 170.225,176.205 171.100 C 175.839 171.935,175.557 172.000,172.297 172.000 C 168.937 172.000,168.763 172.044,168.327 173.000 C 167.906 173.925,167.666 174.000,165.136 174.000 C 162.497 174.000,162.400 174.035,162.400 174.982 C 162.400 175.925,162.281 175.970,159.500 176.082 C 156.839 176.190,156.589 176.274,156.472 177.100 C 156.359 177.894,156.113 178.000,154.372 178.000 C 152.535 178.000,152.400 178.069,152.400 179.000 C 152.400 179.933,152.267 180.000,150.400 180.000 C 148.533 180.000,148.400 180.067,148.400 181.000 C 148.400 181.933,148.267 182.000,146.400 182.000 C 144.533 182.000,144.400 182.067,144.400 183.000 C 144.400 183.933,144.267 184.000,142.400 184.000 C 140.533 184.000,140.400 184.067,140.400 185.000 C 140.400 185.872,140.224 186.000,139.033 186.000 C 137.148 186.000,136.400 186.353,136.400 187.243 C 136.400 187.784,136.114 188.000,135.400 188.000 C 134.600 188.000,134.400 188.200,134.400 189.000 C 134.400 189.872,134.224 190.000,133.033 190.000 C 131.163 190.000,130.400 190.352,130.400 191.215 C 130.400 191.667,130.058 191.993,129.500 192.072 C 128.922 192.154,128.554 192.522,128.472 193.100 C 128.380 193.751,128.076 194.000,127.372 194.000 C 126.602 194.000,126.400 194.208,126.400 195.000 C 126.400 195.800,126.200 196.000,125.400 196.000 C 124.600 196.000,124.400 196.200,124.400 197.000 C 124.400 197.800,124.200 198.000,123.400 198.000 C 122.606 198.000,122.400 198.202,122.400 198.977 C 122.400 199.840,122.202 199.968,120.700 200.077 C 119.403 200.171,118.909 200.408,118.616 201.075 C 118.404 201.557,117.896 202.038,117.486 202.146 C 117.076 202.253,116.643 202.714,116.524 203.170 C 116.404 203.627,115.987 204.000,115.596 204.000 C 114.751 204.000,114.400 204.773,114.400 206.633 C 114.400 207.824,114.272 208.000,113.400 208.000 C 112.600 208.000,112.400 208.200,112.400 209.000 C 112.400 209.800,112.200 210.000,111.400 210.000 C 110.600 210.000,110.400 210.200,110.400 211.000 C 110.400 211.800,110.200 212.000,109.400 212.000 C 108.608 212.000,108.400 212.202,108.400 212.972 C 108.400 213.676,108.151 213.980,107.500 214.072 C 106.732 214.181,106.582 214.479,106.478 216.100 C 106.368 217.815,106.261 218.000,105.378 218.000 C 104.601 218.000,104.400 218.206,104.400 219.000 C 104.400 219.800,104.200 220.000,103.400 220.000 C 102.467 220.000,102.400 220.133,102.400 222.000 C 102.400 223.867,102.333 224.000,101.400 224.000 C 100.608 224.000,100.400 224.202,100.400 224.972 C 100.400 225.676,100.151 225.980,99.500 226.072 C 98.734 226.181,98.582 226.479,98.479 228.075 C 98.377 229.656,98.221 229.969,97.479 230.075 C 96.738 230.180,96.581 230.493,96.479 232.075 C 96.377 233.656,96.221 233.969,95.479 234.075 C 94.736 234.181,94.581 234.493,94.478 236.100 C 94.378 237.667,94.221 238.000,93.586 238.000 C 92.721 238.000,92.463 238.764,92.305 241.800 C 92.214 243.532,92.079 243.817,91.300 243.928 C 90.506 244.041,90.400 244.287,90.400 246.028 C 90.400 247.687,90.281 248.000,89.652 248.000 C 88.788 248.000,88.411 249.599,88.404 253.300 C 88.401 255.092,88.265 255.600,87.790 255.600 C 86.876 255.600,86.400 257.311,86.400 260.599 C 86.400 263.123,86.293 263.580,85.655 263.783 C 84.524 264.142,84.407 266.251,84.403 286.450 C 84.400 305.792,84.483 307.192,85.661 307.500 C 86.309 307.669,86.400 308.126,86.400 311.197 C 86.400 315.803,86.691 317.200,87.650 317.200 C 88.299 317.200,88.400 317.519,88.400 319.567 C 88.400 322.450,88.657 323.200,89.643 323.200 C 90.300 323.200,90.400 323.511,90.400 325.567 C 90.400 328.450,90.657 329.200,91.643 329.200 C 92.250 329.200,92.401 329.496,92.404 330.700 C 92.413 333.536,92.855 335.200,93.601 335.200 C 94.134 335.200,94.359 335.668,94.562 337.200 C 94.779 338.832,94.972 339.200,95.614 339.200 C 96.203 339.200,96.401 339.475,96.405 340.300 C 96.415 342.184,96.849 343.200,97.647 343.200 C 98.184 343.200,98.400 343.487,98.400 344.200 C 98.400 344.994,98.601 345.200,99.378 345.200 C 100.261 345.200,100.368 345.385,100.478 347.100 C 100.582 348.721,100.732 349.019,101.500 349.128 C 102.205 349.228,102.400 349.516,102.400 350.454 C 102.400 351.930,103.041 353.200,103.786 353.200 C 104.093 353.200,104.402 353.605,104.472 354.100 C 104.554 354.678,104.922 355.046,105.500 355.128 C 106.151 355.220,106.400 355.524,106.400 356.228 C 106.400 356.998,106.608 357.200,107.400 357.200 C 108.200 357.200,108.400 357.400,108.400 358.200 C 108.400 359.000,108.600 359.200,109.400 359.200 C 110.200 359.200,110.400 359.400,110.400 360.200 C 110.400 360.992,110.602 361.200,111.372 361.200 C 112.076 361.200,112.380 361.449,112.472 362.100 C 112.549 362.644,112.921 363.046,113.412 363.116 C 113.859 363.180,114.399 363.630,114.612 364.116 C 114.908 364.790,115.398 365.029,116.675 365.122 C 118.049 365.222,118.373 365.401,118.475 366.122 C 118.589 366.921,118.861 367.011,121.500 367.118 C 124.281 367.230,124.400 367.275,124.400 368.218 C 124.400 369.195,124.421 369.200,128.372 369.200 C 132.187 369.200,132.349 369.236,132.472 370.100 C 132.672 371.505,144.126 371.517,144.326 370.112 C 144.447 369.261,144.643 369.220,149.126 369.112 C 153.629 369.004,153.805 368.967,153.928 368.100 C 154.041 367.306,154.287 367.200,156.028 367.200 C 157.855 367.200,158.000 367.128,158.000 366.218 C 158.000 365.275,158.119 365.230,160.900 365.118 C 163.544 365.010,163.811 364.922,163.926 364.117 C 164.040 363.313,164.308 363.224,166.926 363.117 C 169.560 363.010,169.811 362.925,169.928 362.100 C 170.047 361.259,170.250 361.200,173.028 361.200 C 175.923 361.200,176.000 361.174,176.000 360.211 L 176.000 359.221 181.900 359.111 C 187.676 359.002,187.803 358.981,187.928 358.100 L 188.056 357.200 202.028 357.200 L 216.000 357.200 216.000 358.200 L 216.000 359.200 221.000 359.200 L 226.000 359.200 226.000 360.200 L 226.000 361.200 230.000 361.200 L 234.000 361.200 234.000 362.200 C 234.000 363.178,234.067 363.200,237.000 363.200 C 239.933 363.200,240.000 363.222,240.000 364.200 C 240.000 365.133,240.133 365.200,242.000 365.200 C 243.867 365.200,244.000 365.267,244.000 366.200 C 244.000 367.170,244.082 367.200,246.772 367.200 C 249.342 367.200,249.554 367.266,249.672 368.100 C 249.793 368.953,250.002 369.006,253.660 369.114 C 257.388 369.224,257.529 369.262,257.768 370.214 L 258.015 371.200 263.808 371.200 L 269.600 371.200 269.600 370.212 L 269.600 369.225 274.500 369.112 C 279.202 369.005,279.405 368.965,279.525 368.121 C 279.631 367.379,279.944 367.223,281.525 367.121 C 283.107 367.019,283.420 366.862,283.525 366.121 C 283.631 365.379,283.944 365.223,285.525 365.121 C 287.121 365.018,287.419 364.866,287.528 364.100 C 287.620 363.449,287.924 363.200,288.628 363.200 C 289.392 363.200,289.600 362.991,289.600 362.223 C 289.600 361.360,289.798 361.232,291.300 361.123 C 292.568 361.031,293.093 360.788,293.366 360.166 C 293.568 359.708,294.108 359.168,294.566 358.966 C 295.188 358.693,295.431 358.168,295.523 356.900 C 295.632 355.398,295.760 355.200,296.623 355.200 C 297.391 355.200,297.600 354.992,297.600 354.228 C 297.600 353.524,297.849 353.220,298.500 353.128 C 299.078 353.046,299.446 352.678,299.528 352.100 C 299.598 351.605,299.907 351.200,300.214 351.200 C 300.959 351.200,301.600 349.930,301.600 348.454 C 301.600 347.516,301.795 347.228,302.500 347.128 C 303.266 347.019,303.418 346.721,303.521 345.125 C 303.623 343.544,303.779 343.231,304.521 343.125 C 305.262 343.020,305.419 342.707,305.521 341.125 C 305.623 339.544,305.779 339.231,306.521 339.125 C 307.262 339.020,307.419 338.707,307.521 337.125 C 307.623 335.544,307.779 335.231,308.521 335.125 C 309.264 335.019,309.419 334.707,309.522 333.100 C 309.620 331.570,309.786 331.200,310.375 331.200 C 311.256 331.200,311.587 330.140,311.595 327.300 C 311.599 325.508,311.711 325.200,312.357 325.200 C 313.343 325.200,313.600 324.450,313.600 321.567 C 313.600 319.519,313.701 319.200,314.350 319.200 C 315.254 319.200,315.600 317.810,315.600 314.177 C 315.600 312.065,315.722 311.615,316.347 311.417 C 317.308 311.112,317.600 309.044,317.600 302.544 C 317.600 297.867,317.643 297.600,318.400 297.600 C 319.181 297.600,319.200 297.333,319.200 286.600 C 319.200 275.867,319.181 275.600,318.400 275.600 C 317.639 275.600,317.600 275.332,317.596 270.100 C 317.590 263.218,317.352 261.600,316.348 261.600 C 315.685 261.600,315.600 261.265,315.600 258.656 C 315.600 253.982,315.226 252.000,314.346 252.000 C 313.751 252.000,313.599 251.695,313.596 250.500 C 313.587 247.613,313.148 246.000,312.370 246.000 C 311.788 246.000,311.620 245.624,311.522 244.100 C 311.418 242.479,311.268 242.181,310.500 242.072 C 309.754 241.966,309.599 241.693,309.596 240.472 C 309.587 237.638,309.144 236.000,308.385 236.000 C 307.836 236.000,307.613 235.546,307.400 234.000 C 307.187 232.453,306.964 232.000,306.414 232.000 C 305.863 232.000,305.643 231.550,305.438 230.000 C 305.221 228.368,305.028 228.000,304.386 228.000 C 303.814 228.000,303.600 227.727,303.600 227.000 C 303.600 226.206,303.399 226.000,302.622 226.000 C 301.739 226.000,301.632 225.815,301.522 224.100 C 301.418 222.479,301.268 222.181,300.500 222.072 C 299.849 221.980,299.600 221.676,299.600 220.972 C 299.600 220.208,299.391 220.000,298.622 220.000 C 297.739 220.000,297.632 219.815,297.522 218.100 C 297.418 216.479,297.268 216.181,296.500 216.072 C 295.849 215.980,295.600 215.676,295.600 214.972 C 295.600 214.202,295.392 214.000,294.600 214.000 C 293.800 214.000,293.600 213.800,293.600 213.000 C 293.600 212.200,293.400 212.000,292.600 212.000 C 291.728 212.000,291.600 211.824,291.600 210.633 C 291.600 208.763,291.248 208.000,290.385 208.000 C 289.933 208.000,289.607 207.658,289.528 207.100 C 289.447 206.530,289.079 206.154,288.525 206.075 C 287.979 205.998,287.602 205.621,287.525 205.075 C 287.447 204.530,287.070 204.153,286.525 204.075 C 285.979 203.998,285.602 203.621,285.525 203.075 C 285.447 202.530,285.070 202.153,284.525 202.075 C 283.979 201.998,283.602 201.621,283.525 201.075 C 283.447 200.530,283.070 200.153,282.525 200.075 C 281.979 199.998,281.602 199.621,281.525 199.075 C 281.450 198.555,281.071 198.153,280.588 198.084 C 280.141 198.020,279.601 197.570,279.388 197.084 C 279.091 196.407,278.602 196.171,277.300 196.077 C 275.798 195.968,275.600 195.840,275.600 194.977 C 275.600 194.202,275.394 194.000,274.600 194.000 C 273.800 194.000,273.600 193.800,273.600 193.000 C 273.600 192.208,273.398 192.000,272.628 192.000 C 271.924 192.000,271.620 191.751,271.528 191.100 C 271.419 190.332,271.121 190.182,269.500 190.078 C 267.785 189.968,267.600 189.861,267.600 188.978 C 267.600 188.209,267.392 188.000,266.628 188.000 C 265.924 188.000,265.620 187.751,265.528 187.100 C 265.419 186.332,265.121 186.182,263.500 186.078 C 261.785 185.968,261.600 185.861,261.600 184.978 C 261.600 184.201,261.394 184.000,260.600 184.000 C 259.887 184.000,259.600 183.784,259.600 183.247 C 259.600 182.449,258.584 182.015,256.700 182.005 C 255.891 182.001,255.600 181.800,255.600 181.247 C 255.600 180.449,254.584 180.015,252.700 180.005 C 251.891 180.001,251.600 179.800,251.600 179.247 C 251.600 178.342,250.565 178.013,247.700 178.005 C 245.728 178.000,245.600 177.939,245.600 177.000 C 245.600 176.067,245.467 176.000,243.600 176.000 C 241.911 176.000,241.600 175.883,241.600 175.250 C 241.600 174.405,240.223 174.000,237.350 174.000 C 235.906 174.000,235.600 173.869,235.600 173.250 C 235.600 172.289,234.203 172.000,229.550 172.000 C 226.334 172.000,226.000 171.929,226.000 171.243 C 226.000 170.134,225.289 170.000,219.394 170.000 C 214.525 170.000,214.033 169.934,213.816 169.251 C 213.662 168.766,213.052 168.414,212.089 168.255 C 210.326 167.963,191.225 167.972,190.500 168.265 M210.539 169.500 C 210.641 169.665,206.493 169.749,201.320 169.686 C 194.123 169.598,191.762 169.692,191.258 170.086 C 190.671 170.545,190.659 170.525,191.149 169.900 C 191.728 169.161,210.094 168.782,210.539 169.500 M178.224 171.813 C 177.213 172.577,176.562 172.569,177.200 171.800 C 177.474 171.470,177.991 171.206,178.349 171.213 C 178.896 171.223,178.876 171.319,178.224 171.813 M170.456 173.613 C 169.936 174.046,169.306 174.394,169.056 174.387 C 168.805 174.379,169.025 174.019,169.544 173.587 C 170.064 173.154,170.694 172.806,170.944 172.813 C 171.195 172.821,170.975 173.181,170.456 173.613 M287.575 174.800 C 287.575 175.253,287.431 175.210,286.987 174.624 C 286.664 174.196,286.400 173.577,286.400 173.247 C 286.400 172.794,286.544 172.837,286.987 173.424 C 287.310 173.851,287.575 174.470,287.575 174.800 M158.400 177.600 C 157.474 178.403,157.200 178.547,157.200 178.229 C 157.200 177.876,158.473 176.800,158.890 176.800 C 159.128 176.800,158.907 177.160,158.400 177.600 M42.949 184.611 C 43.082 184.957,42.957 185.082,42.611 184.949 C 42.309 184.833,41.967 184.491,41.851 184.189 C 41.718 183.843,41.843 183.718,42.189 183.851 C 42.491 183.967,42.833 184.309,42.949 184.611 M105.544 193.941 C 105.290 194.348,104.703 194.917,104.241 195.205 C 103.277 195.805,103.991 194.695,105.200 193.713 C 106.024 193.044,106.081 193.082,105.544 193.941 M284.200 203.600 C 285.728 205.140,286.872 206.400,286.741 206.400 C 286.488 206.400,281.200 201.198,281.200 200.948 C 281.200 200.618,281.534 200.914,284.200 203.600 M67.129 202.678 C 67.974 203.513,66.983 203.280,65.944 202.399 C 65.130 201.708,65.110 201.637,65.800 201.877 C 66.240 202.030,66.838 202.390,67.129 202.678 M75.441 204.732 C 74.802 204.805,74.032 204.603,73.705 204.276 C 73.189 203.760,73.328 203.744,74.854 204.145 C 76.446 204.562,76.495 204.611,75.441 204.732 M88.382 257.634 C 88.136 258.093,87.838 258.371,87.718 258.252 C 87.388 257.922,87.917 256.800,88.402 256.800 C 88.697 256.800,88.691 257.056,88.382 257.634 M318.307 286.722 C 318.226 293.850,318.078 296.174,317.697 296.301 C 317.312 296.429,317.288 296.220,317.597 295.408 C 318.210 293.795,318.125 277.501,317.500 276.799 C 317.074 276.322,317.105 276.318,317.707 276.774 C 318.354 277.264,318.405 278.116,318.307 286.722 M86.570 306.340 C 86.222 306.758,85.602 305.805,85.618 304.876 L 85.636 303.800 86.161 305.000 C 86.450 305.660,86.634 306.263,86.570 306.340 M316.044 310.116 C 315.359 310.801,315.092 310.162,315.672 309.225 C 316.114 308.512,316.222 308.480,316.338 309.029 C 316.413 309.390,316.281 309.879,316.044 310.116 M314.000 317.800 C 313.717 318.141,313.396 318.329,313.286 318.219 C 313.176 318.109,313.317 317.741,313.600 317.400 C 313.883 317.059,314.204 316.871,314.314 316.981 C 314.424 317.091,314.283 317.459,314.000 317.800 M90.456 321.722 C 90.913 322.594,90.910 322.595,90.058 321.838 C 89.586 321.419,89.200 320.913,89.200 320.714 C 89.200 320.151,89.946 320.750,90.456 321.722 M92.456 327.722 C 92.913 328.594,92.910 328.595,92.058 327.838 C 91.586 327.419,91.200 326.913,91.200 326.714 C 91.200 326.151,91.946 326.750,92.456 327.722 M202.300 356.687 C 201.695 356.778,200.705 356.778,200.100 356.687 C 199.495 356.595,199.990 356.520,201.200 356.520 C 202.410 356.520,202.905 356.595,202.300 356.687 M228.230 359.648 C 228.593 360.236,227.332 360.041,226.826 359.431 C 226.439 358.965,226.503 358.902,227.183 359.080 C 227.639 359.199,228.110 359.455,228.230 359.648 M286.198 363.602 C 285.798 364.044,285.366 364.299,285.236 364.170 C 285.107 364.040,285.350 363.679,285.777 363.367 C 286.873 362.566,287.048 362.663,286.198 363.602 "
              stroke="none" fill="#04343c" fill-rule="evenodd"></path>
        <path id="path1"
              d="M141.107 27.490 C 141.826 27.579,142.906 27.577,143.507 27.486 C 144.108 27.395,143.520 27.322,142.200 27.324 C 140.880 27.326,140.388 27.401,141.107 27.490 M258.707 27.490 C 259.426 27.579,260.506 27.577,261.107 27.486 C 261.708 27.395,261.120 27.322,259.800 27.324 C 258.480 27.326,257.988 27.401,258.707 27.490 M135.424 28.613 C 134.436 29.360,135.085 29.352,136.400 28.600 C 136.980 28.268,137.148 28.028,136.800 28.027 C 136.470 28.026,135.851 28.290,135.424 28.613 M252.804 28.595 C 252.298 29.204,252.426 29.187,255.200 28.263 C 255.530 28.153,255.237 28.049,254.549 28.032 C 253.861 28.014,253.076 28.268,252.804 28.595 M239.144 34.387 C 238.625 34.819,238.397 35.179,238.638 35.187 C 238.879 35.194,239.402 34.840,239.800 34.400 C 240.726 33.376,240.366 33.369,239.144 34.387 M170.000 40.324 C 170.000 40.539,170.285 40.824,170.633 40.957 C 171.023 41.107,171.206 41.018,171.108 40.725 C 170.909 40.127,170.000 39.798,170.000 40.324 M104.893 67.600 C 104.893 68.370,104.975 68.685,105.076 68.300 C 105.176 67.915,105.176 67.285,105.076 66.900 C 104.975 66.515,104.893 66.830,104.893 67.600 M215.273 72.087 C 215.013 72.347,214.807 72.929,214.816 73.380 C 214.830 74.077,214.924 74.030,215.447 73.065 C 216.116 71.830,216.028 71.332,215.273 72.087 M297.989 76.200 C 297.875 78.620,297.624 80.960,297.434 81.400 C 297.115 82.135,297.141 82.149,297.757 81.572 C 298.323 81.042,298.410 80.232,298.313 76.372 L 298.198 71.800 297.989 76.200 M188.334 80.082 C 188.946 80.863,188.835 93.575,188.204 95.000 C 187.888 95.714,187.923 95.741,188.525 95.251 C 189.562 94.408,189.540 80.764,188.500 79.949 C 187.870 79.455,187.853 79.468,188.334 80.082 M104.901 85.400 C 104.905 86.280,104.987 86.593,105.083 86.095 C 105.179 85.598,105.175 84.878,105.075 84.495 C 104.975 84.113,104.896 84.520,104.901 85.400 M187.040 103.381 C 186.900 103.942,186.608 104.400,186.392 104.400 C 186.177 104.400,186.000 104.580,186.000 104.800 C 186.000 105.020,186.158 105.200,186.351 105.200 C 186.773 105.200,187.795 102.862,187.502 102.569 C 187.389 102.455,187.181 102.821,187.040 103.381 M216.892 108.475 C 217.091 109.073,218.000 109.402,218.000 108.876 C 218.000 108.661,217.715 108.376,217.367 108.243 C 216.977 108.093,216.794 108.182,216.892 108.475 M316.744 111.979 C 315.822 112.741,315.820 112.753,316.672 112.540 C 317.152 112.420,317.641 112.069,317.760 111.761 C 318.046 111.014,317.867 111.053,316.744 111.979 M307.100 117.632 C 306.715 117.856,306.400 118.205,306.400 118.407 C 306.400 118.950,307.502 118.431,307.757 117.769 C 308.012 117.103,308.010 117.102,307.100 117.632 M298.487 126.409 C 298.019 127.159,298.041 127.181,298.791 126.713 C 299.236 126.435,299.600 126.071,299.600 125.904 C 299.600 125.326,298.991 125.603,298.487 126.409 M31.301 143.400 C 31.305 144.280,31.387 144.593,31.483 144.095 C 31.579 143.598,31.575 142.878,31.475 142.495 C 31.375 142.113,31.296 142.520,31.301 143.400 M117.000 162.338 C 117.000 163.802,116.862 165.540,116.694 166.200 C 116.406 167.327,116.425 167.353,116.994 166.624 C 117.632 165.806,117.885 160.223,117.300 159.862 C 117.135 159.760,117.000 160.874,117.000 162.338 M191.149 169.900 C 190.659 170.525,190.671 170.545,191.258 170.086 C 191.762 169.692,194.123 169.598,201.320 169.686 C 206.493 169.749,210.641 169.665,210.539 169.500 C 210.094 168.782,191.728 169.161,191.149 169.900 M177.200 171.800 C 176.562 172.569,177.213 172.577,178.224 171.813 C 178.876 171.319,178.896 171.223,178.349 171.213 C 177.991 171.206,177.474 171.470,177.200 171.800 M169.544 173.587 C 169.025 174.019,168.805 174.379,169.056 174.387 C 169.306 174.394,169.936 174.046,170.456 173.613 C 170.975 173.181,171.195 172.821,170.944 172.813 C 170.694 172.806,170.064 173.154,169.544 173.587 M286.400 173.247 C 286.400 173.577,286.664 174.196,286.987 174.624 C 287.431 175.210,287.575 175.253,287.575 174.800 C 287.575 174.470,287.310 173.851,286.987 173.424 C 286.544 172.837,286.400 172.794,286.400 173.247 M157.829 177.429 C 156.641 178.616,157.078 178.747,158.400 177.600 C 158.907 177.160,159.128 176.800,158.890 176.800 C 158.652 176.800,158.174 177.083,157.829 177.429 M41.851 184.189 C 41.967 184.491,42.309 184.833,42.611 184.949 C 42.957 185.082,43.082 184.957,42.949 184.611 C 42.833 184.309,42.491 183.967,42.189 183.851 C 41.843 183.718,41.718 183.843,41.851 184.189 M105.200 193.713 C 103.991 194.695,103.277 195.805,104.241 195.205 C 104.703 194.917,105.290 194.348,105.544 193.941 C 106.081 193.082,106.024 193.044,105.200 193.713 M281.200 200.948 C 281.200 201.198,286.488 206.400,286.741 206.400 C 286.872 206.400,285.728 205.140,284.200 203.600 C 281.534 200.914,281.200 200.618,281.200 200.948 M65.944 202.399 C 66.464 202.840,67.062 203.200,67.273 203.200 C 67.841 203.200,66.727 202.199,65.800 201.877 C 65.110 201.637,65.130 201.708,65.944 202.399 M73.705 204.276 C 74.032 204.603,74.802 204.805,75.441 204.732 C 76.495 204.611,76.446 204.562,74.854 204.145 C 73.328 203.744,73.189 203.760,73.705 204.276 M87.738 257.417 C 87.366 258.387,87.885 258.562,88.382 257.634 C 88.691 257.056,88.697 256.800,88.402 256.800 C 88.167 256.800,87.868 257.078,87.738 257.417 M317.500 276.799 C 318.125 277.501,318.210 293.795,317.597 295.408 C 317.288 296.220,317.312 296.429,317.697 296.301 C 318.604 295.999,318.613 277.461,317.707 276.774 C 317.105 276.318,317.074 276.322,317.500 276.799 M85.618 304.876 C 85.608 305.468,85.792 306.071,86.027 306.216 C 86.694 306.629,86.730 306.299,86.161 305.000 L 85.636 303.800 85.618 304.876 M315.672 309.225 C 315.382 309.694,315.250 310.183,315.379 310.312 C 315.765 310.699,316.485 309.735,316.338 309.029 C 316.222 308.480,316.114 308.512,315.672 309.225 M313.600 317.400 C 313.317 317.741,313.176 318.109,313.286 318.219 C 313.396 318.329,313.717 318.141,314.000 317.800 C 314.283 317.459,314.424 317.091,314.314 316.981 C 314.204 316.871,313.883 317.059,313.600 317.400 M89.200 320.714 C 89.200 320.913,89.586 321.419,90.058 321.838 C 90.910 322.595,90.913 322.594,90.456 321.722 C 89.946 320.750,89.200 320.151,89.200 320.714 M91.200 326.714 C 91.200 326.913,91.586 327.419,92.058 327.838 C 92.910 328.595,92.913 328.594,92.456 327.722 C 91.946 326.750,91.200 326.151,91.200 326.714 M200.100 356.687 C 200.705 356.778,201.695 356.778,202.300 356.687 C 202.905 356.595,202.410 356.520,201.200 356.520 C 199.990 356.520,199.495 356.595,200.100 356.687 M226.826 359.431 C 227.086 359.744,227.557 360.000,227.873 360.000 C 228.677 360.000,228.184 359.341,227.183 359.080 C 226.503 358.902,226.439 358.965,226.826 359.431 M285.777 363.367 C 285.350 363.679,285.107 364.040,285.236 364.170 C 285.366 364.299,285.798 364.044,286.198 363.602 C 287.048 362.663,286.873 362.566,285.777 363.367 "
              stroke="none" fill="#08343c" fill-rule="evenodd"></path>
        <path id="path2"
              d="M141.107 27.490 C 141.826 27.579,142.906 27.577,143.507 27.486 C 144.108 27.395,143.520 27.322,142.200 27.324 C 140.880 27.326,140.388 27.401,141.107 27.490 M258.707 27.490 C 259.426 27.579,260.506 27.577,261.107 27.486 C 261.708 27.395,261.120 27.322,259.800 27.324 C 258.480 27.326,257.988 27.401,258.707 27.490 M135.424 28.613 C 134.436 29.360,135.085 29.352,136.400 28.600 C 136.980 28.268,137.148 28.028,136.800 28.027 C 136.470 28.026,135.851 28.290,135.424 28.613 M252.804 28.595 C 252.298 29.204,252.426 29.187,255.200 28.263 C 255.530 28.153,255.237 28.049,254.549 28.032 C 253.861 28.014,253.076 28.268,252.804 28.595 M239.144 34.387 C 238.625 34.819,238.397 35.179,238.638 35.187 C 238.879 35.194,239.402 34.840,239.800 34.400 C 240.726 33.376,240.366 33.369,239.144 34.387 M170.000 40.324 C 170.000 40.539,170.285 40.824,170.633 40.957 C 171.023 41.107,171.206 41.018,171.108 40.725 C 170.909 40.127,170.000 39.798,170.000 40.324 M104.893 67.600 C 104.893 68.370,104.975 68.685,105.076 68.300 C 105.176 67.915,105.176 67.285,105.076 66.900 C 104.975 66.515,104.893 66.830,104.893 67.600 M215.273 72.087 C 215.013 72.347,214.807 72.929,214.816 73.380 C 214.830 74.077,214.924 74.030,215.447 73.065 C 216.116 71.830,216.028 71.332,215.273 72.087 M297.989 76.200 C 297.875 78.620,297.624 80.960,297.434 81.400 C 297.115 82.135,297.141 82.149,297.757 81.572 C 298.323 81.042,298.410 80.232,298.313 76.372 L 298.198 71.800 297.989 76.200 M188.334 80.082 C 188.946 80.863,188.835 93.575,188.204 95.000 C 187.888 95.714,187.923 95.741,188.525 95.251 C 189.562 94.408,189.540 80.764,188.500 79.949 C 187.870 79.455,187.853 79.468,188.334 80.082 M104.901 85.400 C 104.905 86.280,104.987 86.593,105.083 86.095 C 105.179 85.598,105.175 84.878,105.075 84.495 C 104.975 84.113,104.896 84.520,104.901 85.400 M187.040 103.381 C 186.900 103.942,186.608 104.400,186.392 104.400 C 186.177 104.400,186.000 104.580,186.000 104.800 C 186.000 105.020,186.158 105.200,186.351 105.200 C 186.773 105.200,187.795 102.862,187.502 102.569 C 187.389 102.455,187.181 102.821,187.040 103.381 M216.892 108.475 C 217.091 109.073,218.000 109.402,218.000 108.876 C 218.000 108.661,217.715 108.376,217.367 108.243 C 216.977 108.093,216.794 108.182,216.892 108.475 M316.744 111.979 C 315.822 112.741,315.820 112.753,316.672 112.540 C 317.152 112.420,317.641 112.069,317.760 111.761 C 318.046 111.014,317.867 111.053,316.744 111.979 M307.100 117.632 C 306.715 117.856,306.400 118.205,306.400 118.407 C 306.400 118.950,307.502 118.431,307.757 117.769 C 308.012 117.103,308.010 117.102,307.100 117.632 M298.487 126.409 C 298.019 127.159,298.041 127.181,298.791 126.713 C 299.236 126.435,299.600 126.071,299.600 125.904 C 299.600 125.326,298.991 125.603,298.487 126.409 M31.301 143.400 C 31.305 144.280,31.387 144.593,31.483 144.095 C 31.579 143.598,31.575 142.878,31.475 142.495 C 31.375 142.113,31.296 142.520,31.301 143.400 M117.000 162.338 C 117.000 163.802,116.862 165.540,116.694 166.200 C 116.406 167.327,116.425 167.353,116.994 166.624 C 117.632 165.806,117.885 160.223,117.300 159.862 C 117.135 159.760,117.000 160.874,117.000 162.338 M191.149 169.900 C 190.659 170.525,190.671 170.545,191.258 170.086 C 191.762 169.692,194.123 169.598,201.320 169.686 C 206.493 169.749,210.641 169.665,210.539 169.500 C 210.094 168.782,191.728 169.161,191.149 169.900 M177.200 171.800 C 176.562 172.569,177.213 172.577,178.224 171.813 C 178.876 171.319,178.896 171.223,178.349 171.213 C 177.991 171.206,177.474 171.470,177.200 171.800 M169.544 173.587 C 169.025 174.019,168.805 174.379,169.056 174.387 C 169.306 174.394,169.936 174.046,170.456 173.613 C 170.975 173.181,171.195 172.821,170.944 172.813 C 170.694 172.806,170.064 173.154,169.544 173.587 M286.400 173.247 C 286.400 173.577,286.664 174.196,286.987 174.624 C 287.431 175.210,287.575 175.253,287.575 174.800 C 287.575 174.470,287.310 173.851,286.987 173.424 C 286.544 172.837,286.400 172.794,286.400 173.247 M157.829 177.429 C 156.641 178.616,157.078 178.747,158.400 177.600 C 158.907 177.160,159.128 176.800,158.890 176.800 C 158.652 176.800,158.174 177.083,157.829 177.429 M41.851 184.189 C 41.967 184.491,42.309 184.833,42.611 184.949 C 42.957 185.082,43.082 184.957,42.949 184.611 C 42.833 184.309,42.491 183.967,42.189 183.851 C 41.843 183.718,41.718 183.843,41.851 184.189 M105.200 193.713 C 103.991 194.695,103.277 195.805,104.241 195.205 C 104.703 194.917,105.290 194.348,105.544 193.941 C 106.081 193.082,106.024 193.044,105.200 193.713 M281.200 200.948 C 281.200 201.198,286.488 206.400,286.741 206.400 C 286.872 206.400,285.728 205.140,284.200 203.600 C 281.534 200.914,281.200 200.618,281.200 200.948 M65.944 202.399 C 66.464 202.840,67.062 203.200,67.273 203.200 C 67.841 203.200,66.727 202.199,65.800 201.877 C 65.110 201.637,65.130 201.708,65.944 202.399 M73.705 204.276 C 74.032 204.603,74.802 204.805,75.441 204.732 C 76.495 204.611,76.446 204.562,74.854 204.145 C 73.328 203.744,73.189 203.760,73.705 204.276 M87.738 257.417 C 87.366 258.387,87.885 258.562,88.382 257.634 C 88.691 257.056,88.697 256.800,88.402 256.800 C 88.167 256.800,87.868 257.078,87.738 257.417 M317.500 276.799 C 318.125 277.501,318.210 293.795,317.597 295.408 C 317.288 296.220,317.312 296.429,317.697 296.301 C 318.604 295.999,318.613 277.461,317.707 276.774 C 317.105 276.318,317.074 276.322,317.500 276.799 M85.618 304.876 C 85.608 305.468,85.792 306.071,86.027 306.216 C 86.694 306.629,86.730 306.299,86.161 305.000 L 85.636 303.800 85.618 304.876 M315.672 309.225 C 315.382 309.694,315.250 310.183,315.379 310.312 C 315.765 310.699,316.485 309.735,316.338 309.029 C 316.222 308.480,316.114 308.512,315.672 309.225 M313.600 317.400 C 313.317 317.741,313.176 318.109,313.286 318.219 C 313.396 318.329,313.717 318.141,314.000 317.800 C 314.283 317.459,314.424 317.091,314.314 316.981 C 314.204 316.871,313.883 317.059,313.600 317.400 M89.200 320.714 C 89.200 320.913,89.586 321.419,90.058 321.838 C 90.910 322.595,90.913 322.594,90.456 321.722 C 89.946 320.750,89.200 320.151,89.200 320.714 M91.200 326.714 C 91.200 326.913,91.586 327.419,92.058 327.838 C 92.910 328.595,92.913 328.594,92.456 327.722 C 91.946 326.750,91.200 326.151,91.200 326.714 M200.100 356.687 C 200.705 356.778,201.695 356.778,202.300 356.687 C 202.905 356.595,202.410 356.520,201.200 356.520 C 199.990 356.520,199.495 356.595,200.100 356.687 M226.826 359.431 C 227.086 359.744,227.557 360.000,227.873 360.000 C 228.677 360.000,228.184 359.341,227.183 359.080 C 226.503 358.902,226.439 358.965,226.826 359.431 M285.777 363.367 C 285.350 363.679,285.107 364.040,285.236 364.170 C 285.366 364.299,285.798 364.044,286.198 363.602 C 287.048 362.663,286.873 362.566,285.777 363.367 "
              stroke="none" fill="#08343c" fill-rule="evenodd"></path>
        <path id="path3"
              d="M141.107 27.490 C 141.826 27.579,142.906 27.577,143.507 27.486 C 144.108 27.395,143.520 27.322,142.200 27.324 C 140.880 27.326,140.388 27.401,141.107 27.490 M258.707 27.490 C 259.426 27.579,260.506 27.577,261.107 27.486 C 261.708 27.395,261.120 27.322,259.800 27.324 C 258.480 27.326,257.988 27.401,258.707 27.490 M135.424 28.613 C 134.436 29.360,135.085 29.352,136.400 28.600 C 136.980 28.268,137.148 28.028,136.800 28.027 C 136.470 28.026,135.851 28.290,135.424 28.613 M252.804 28.595 C 252.298 29.204,252.426 29.187,255.200 28.263 C 255.530 28.153,255.237 28.049,254.549 28.032 C 253.861 28.014,253.076 28.268,252.804 28.595 M239.144 34.387 C 238.625 34.819,238.397 35.179,238.638 35.187 C 238.879 35.194,239.402 34.840,239.800 34.400 C 240.726 33.376,240.366 33.369,239.144 34.387 M170.000 40.324 C 170.000 40.539,170.285 40.824,170.633 40.957 C 171.023 41.107,171.206 41.018,171.108 40.725 C 170.909 40.127,170.000 39.798,170.000 40.324 M104.893 67.600 C 104.893 68.370,104.975 68.685,105.076 68.300 C 105.176 67.915,105.176 67.285,105.076 66.900 C 104.975 66.515,104.893 66.830,104.893 67.600 M215.273 72.087 C 215.013 72.347,214.807 72.929,214.816 73.380 C 214.830 74.077,214.924 74.030,215.447 73.065 C 216.116 71.830,216.028 71.332,215.273 72.087 M297.989 76.200 C 297.875 78.620,297.624 80.960,297.434 81.400 C 297.115 82.135,297.141 82.149,297.757 81.572 C 298.323 81.042,298.410 80.232,298.313 76.372 L 298.198 71.800 297.989 76.200 M188.334 80.082 C 188.946 80.863,188.835 93.575,188.204 95.000 C 187.888 95.714,187.923 95.741,188.525 95.251 C 189.562 94.408,189.540 80.764,188.500 79.949 C 187.870 79.455,187.853 79.468,188.334 80.082 M104.901 85.400 C 104.905 86.280,104.987 86.593,105.083 86.095 C 105.179 85.598,105.175 84.878,105.075 84.495 C 104.975 84.113,104.896 84.520,104.901 85.400 M187.040 103.381 C 186.900 103.942,186.608 104.400,186.392 104.400 C 186.177 104.400,186.000 104.580,186.000 104.800 C 186.000 105.020,186.158 105.200,186.351 105.200 C 186.773 105.200,187.795 102.862,187.502 102.569 C 187.389 102.455,187.181 102.821,187.040 103.381 M216.892 108.475 C 217.091 109.073,218.000 109.402,218.000 108.876 C 218.000 108.661,217.715 108.376,217.367 108.243 C 216.977 108.093,216.794 108.182,216.892 108.475 M316.744 111.979 C 315.822 112.741,315.820 112.753,316.672 112.540 C 317.152 112.420,317.641 112.069,317.760 111.761 C 318.046 111.014,317.867 111.053,316.744 111.979 M307.100 117.632 C 306.715 117.856,306.400 118.205,306.400 118.407 C 306.400 118.950,307.502 118.431,307.757 117.769 C 308.012 117.103,308.010 117.102,307.100 117.632 M298.487 126.409 C 298.019 127.159,298.041 127.181,298.791 126.713 C 299.236 126.435,299.600 126.071,299.600 125.904 C 299.600 125.326,298.991 125.603,298.487 126.409 M31.301 143.400 C 31.305 144.280,31.387 144.593,31.483 144.095 C 31.579 143.598,31.575 142.878,31.475 142.495 C 31.375 142.113,31.296 142.520,31.301 143.400 M117.000 162.338 C 117.000 163.802,116.862 165.540,116.694 166.200 C 116.406 167.327,116.425 167.353,116.994 166.624 C 117.632 165.806,117.885 160.223,117.300 159.862 C 117.135 159.760,117.000 160.874,117.000 162.338 M191.149 169.900 C 190.659 170.525,190.671 170.545,191.258 170.086 C 191.762 169.692,194.123 169.598,201.320 169.686 C 206.493 169.749,210.641 169.665,210.539 169.500 C 210.094 168.782,191.728 169.161,191.149 169.900 M177.200 171.800 C 176.562 172.569,177.213 172.577,178.224 171.813 C 178.876 171.319,178.896 171.223,178.349 171.213 C 177.991 171.206,177.474 171.470,177.200 171.800 M169.544 173.587 C 169.025 174.019,168.805 174.379,169.056 174.387 C 169.306 174.394,169.936 174.046,170.456 173.613 C 170.975 173.181,171.195 172.821,170.944 172.813 C 170.694 172.806,170.064 173.154,169.544 173.587 M286.400 173.247 C 286.400 173.577,286.664 174.196,286.987 174.624 C 287.431 175.210,287.575 175.253,287.575 174.800 C 287.575 174.470,287.310 173.851,286.987 173.424 C 286.544 172.837,286.400 172.794,286.400 173.247 M157.829 177.429 C 156.641 178.616,157.078 178.747,158.400 177.600 C 158.907 177.160,159.128 176.800,158.890 176.800 C 158.652 176.800,158.174 177.083,157.829 177.429 M41.851 184.189 C 41.967 184.491,42.309 184.833,42.611 184.949 C 42.957 185.082,43.082 184.957,42.949 184.611 C 42.833 184.309,42.491 183.967,42.189 183.851 C 41.843 183.718,41.718 183.843,41.851 184.189 M105.200 193.713 C 103.991 194.695,103.277 195.805,104.241 195.205 C 104.703 194.917,105.290 194.348,105.544 193.941 C 106.081 193.082,106.024 193.044,105.200 193.713 M281.200 200.948 C 281.200 201.198,286.488 206.400,286.741 206.400 C 286.872 206.400,285.728 205.140,284.200 203.600 C 281.534 200.914,281.200 200.618,281.200 200.948 M65.944 202.399 C 66.464 202.840,67.062 203.200,67.273 203.200 C 67.841 203.200,66.727 202.199,65.800 201.877 C 65.110 201.637,65.130 201.708,65.944 202.399 M73.705 204.276 C 74.032 204.603,74.802 204.805,75.441 204.732 C 76.495 204.611,76.446 204.562,74.854 204.145 C 73.328 203.744,73.189 203.760,73.705 204.276 M87.738 257.417 C 87.366 258.387,87.885 258.562,88.382 257.634 C 88.691 257.056,88.697 256.800,88.402 256.800 C 88.167 256.800,87.868 257.078,87.738 257.417 M317.500 276.799 C 318.125 277.501,318.210 293.795,317.597 295.408 C 317.288 296.220,317.312 296.429,317.697 296.301 C 318.604 295.999,318.613 277.461,317.707 276.774 C 317.105 276.318,317.074 276.322,317.500 276.799 M85.618 304.876 C 85.608 305.468,85.792 306.071,86.027 306.216 C 86.694 306.629,86.730 306.299,86.161 305.000 L 85.636 303.800 85.618 304.876 M315.672 309.225 C 315.382 309.694,315.250 310.183,315.379 310.312 C 315.765 310.699,316.485 309.735,316.338 309.029 C 316.222 308.480,316.114 308.512,315.672 309.225 M313.600 317.400 C 313.317 317.741,313.176 318.109,313.286 318.219 C 313.396 318.329,313.717 318.141,314.000 317.800 C 314.283 317.459,314.424 317.091,314.314 316.981 C 314.204 316.871,313.883 317.059,313.600 317.400 M89.200 320.714 C 89.200 320.913,89.586 321.419,90.058 321.838 C 90.910 322.595,90.913 322.594,90.456 321.722 C 89.946 320.750,89.200 320.151,89.200 320.714 M91.200 326.714 C 91.200 326.913,91.586 327.419,92.058 327.838 C 92.910 328.595,92.913 328.594,92.456 327.722 C 91.946 326.750,91.200 326.151,91.200 326.714 M200.100 356.687 C 200.705 356.778,201.695 356.778,202.300 356.687 C 202.905 356.595,202.410 356.520,201.200 356.520 C 199.990 356.520,199.495 356.595,200.100 356.687 M226.826 359.431 C 227.086 359.744,227.557 360.000,227.873 360.000 C 228.677 360.000,228.184 359.341,227.183 359.080 C 226.503 358.902,226.439 358.965,226.826 359.431 M285.777 363.367 C 285.350 363.679,285.107 364.040,285.236 364.170 C 285.366 364.299,285.798 364.044,286.198 363.602 C 287.048 362.663,286.873 362.566,285.777 363.367 "
              stroke="none" fill="#08343c" fill-rule="evenodd"></path>
        <path id="path4"
              d="M141.107 27.490 C 141.826 27.579,142.906 27.577,143.507 27.486 C 144.108 27.395,143.520 27.322,142.200 27.324 C 140.880 27.326,140.388 27.401,141.107 27.490 M258.707 27.490 C 259.426 27.579,260.506 27.577,261.107 27.486 C 261.708 27.395,261.120 27.322,259.800 27.324 C 258.480 27.326,257.988 27.401,258.707 27.490 M135.424 28.613 C 134.436 29.360,135.085 29.352,136.400 28.600 C 136.980 28.268,137.148 28.028,136.800 28.027 C 136.470 28.026,135.851 28.290,135.424 28.613 M252.804 28.595 C 252.298 29.204,252.426 29.187,255.200 28.263 C 255.530 28.153,255.237 28.049,254.549 28.032 C 253.861 28.014,253.076 28.268,252.804 28.595 M239.144 34.387 C 238.625 34.819,238.397 35.179,238.638 35.187 C 238.879 35.194,239.402 34.840,239.800 34.400 C 240.726 33.376,240.366 33.369,239.144 34.387 M170.000 40.324 C 170.000 40.539,170.285 40.824,170.633 40.957 C 171.023 41.107,171.206 41.018,171.108 40.725 C 170.909 40.127,170.000 39.798,170.000 40.324 M104.893 67.600 C 104.893 68.370,104.975 68.685,105.076 68.300 C 105.176 67.915,105.176 67.285,105.076 66.900 C 104.975 66.515,104.893 66.830,104.893 67.600 M215.273 72.087 C 215.013 72.347,214.807 72.929,214.816 73.380 C 214.830 74.077,214.924 74.030,215.447 73.065 C 216.116 71.830,216.028 71.332,215.273 72.087 M297.989 76.200 C 297.875 78.620,297.624 80.960,297.434 81.400 C 297.115 82.135,297.141 82.149,297.757 81.572 C 298.323 81.042,298.410 80.232,298.313 76.372 L 298.198 71.800 297.989 76.200 M188.334 80.082 C 188.946 80.863,188.835 93.575,188.204 95.000 C 187.888 95.714,187.923 95.741,188.525 95.251 C 189.562 94.408,189.540 80.764,188.500 79.949 C 187.870 79.455,187.853 79.468,188.334 80.082 M104.901 85.400 C 104.905 86.280,104.987 86.593,105.083 86.095 C 105.179 85.598,105.175 84.878,105.075 84.495 C 104.975 84.113,104.896 84.520,104.901 85.400 M187.040 103.381 C 186.900 103.942,186.608 104.400,186.392 104.400 C 186.177 104.400,186.000 104.580,186.000 104.800 C 186.000 105.020,186.158 105.200,186.351 105.200 C 186.773 105.200,187.795 102.862,187.502 102.569 C 187.389 102.455,187.181 102.821,187.040 103.381 M216.892 108.475 C 217.091 109.073,218.000 109.402,218.000 108.876 C 218.000 108.661,217.715 108.376,217.367 108.243 C 216.977 108.093,216.794 108.182,216.892 108.475 M316.744 111.979 C 315.822 112.741,315.820 112.753,316.672 112.540 C 317.152 112.420,317.641 112.069,317.760 111.761 C 318.046 111.014,317.867 111.053,316.744 111.979 M307.100 117.632 C 306.715 117.856,306.400 118.205,306.400 118.407 C 306.400 118.950,307.502 118.431,307.757 117.769 C 308.012 117.103,308.010 117.102,307.100 117.632 M298.487 126.409 C 298.019 127.159,298.041 127.181,298.791 126.713 C 299.236 126.435,299.600 126.071,299.600 125.904 C 299.600 125.326,298.991 125.603,298.487 126.409 M31.301 143.400 C 31.305 144.280,31.387 144.593,31.483 144.095 C 31.579 143.598,31.575 142.878,31.475 142.495 C 31.375 142.113,31.296 142.520,31.301 143.400 M117.000 162.338 C 117.000 163.802,116.862 165.540,116.694 166.200 C 116.406 167.327,116.425 167.353,116.994 166.624 C 117.632 165.806,117.885 160.223,117.300 159.862 C 117.135 159.760,117.000 160.874,117.000 162.338 M191.149 169.900 C 190.659 170.525,190.671 170.545,191.258 170.086 C 191.762 169.692,194.123 169.598,201.320 169.686 C 206.493 169.749,210.641 169.665,210.539 169.500 C 210.094 168.782,191.728 169.161,191.149 169.900 M177.200 171.800 C 176.562 172.569,177.213 172.577,178.224 171.813 C 178.876 171.319,178.896 171.223,178.349 171.213 C 177.991 171.206,177.474 171.470,177.200 171.800 M169.544 173.587 C 169.025 174.019,168.805 174.379,169.056 174.387 C 169.306 174.394,169.936 174.046,170.456 173.613 C 170.975 173.181,171.195 172.821,170.944 172.813 C 170.694 172.806,170.064 173.154,169.544 173.587 M286.400 173.247 C 286.400 173.577,286.664 174.196,286.987 174.624 C 287.431 175.210,287.575 175.253,287.575 174.800 C 287.575 174.470,287.310 173.851,286.987 173.424 C 286.544 172.837,286.400 172.794,286.400 173.247 M157.829 177.429 C 156.641 178.616,157.078 178.747,158.400 177.600 C 158.907 177.160,159.128 176.800,158.890 176.800 C 158.652 176.800,158.174 177.083,157.829 177.429 M41.851 184.189 C 41.967 184.491,42.309 184.833,42.611 184.949 C 42.957 185.082,43.082 184.957,42.949 184.611 C 42.833 184.309,42.491 183.967,42.189 183.851 C 41.843 183.718,41.718 183.843,41.851 184.189 M105.200 193.713 C 103.991 194.695,103.277 195.805,104.241 195.205 C 104.703 194.917,105.290 194.348,105.544 193.941 C 106.081 193.082,106.024 193.044,105.200 193.713 M281.200 200.948 C 281.200 201.198,286.488 206.400,286.741 206.400 C 286.872 206.400,285.728 205.140,284.200 203.600 C 281.534 200.914,281.200 200.618,281.200 200.948 M65.944 202.399 C 66.464 202.840,67.062 203.200,67.273 203.200 C 67.841 203.200,66.727 202.199,65.800 201.877 C 65.110 201.637,65.130 201.708,65.944 202.399 M73.705 204.276 C 74.032 204.603,74.802 204.805,75.441 204.732 C 76.495 204.611,76.446 204.562,74.854 204.145 C 73.328 203.744,73.189 203.760,73.705 204.276 M87.738 257.417 C 87.366 258.387,87.885 258.562,88.382 257.634 C 88.691 257.056,88.697 256.800,88.402 256.800 C 88.167 256.800,87.868 257.078,87.738 257.417 M317.500 276.799 C 318.125 277.501,318.210 293.795,317.597 295.408 C 317.288 296.220,317.312 296.429,317.697 296.301 C 318.604 295.999,318.613 277.461,317.707 276.774 C 317.105 276.318,317.074 276.322,317.500 276.799 M85.618 304.876 C 85.608 305.468,85.792 306.071,86.027 306.216 C 86.694 306.629,86.730 306.299,86.161 305.000 L 85.636 303.800 85.618 304.876 M315.672 309.225 C 315.382 309.694,315.250 310.183,315.379 310.312 C 315.765 310.699,316.485 309.735,316.338 309.029 C 316.222 308.480,316.114 308.512,315.672 309.225 M313.600 317.400 C 313.317 317.741,313.176 318.109,313.286 318.219 C 313.396 318.329,313.717 318.141,314.000 317.800 C 314.283 317.459,314.424 317.091,314.314 316.981 C 314.204 316.871,313.883 317.059,313.600 317.400 M89.200 320.714 C 89.200 320.913,89.586 321.419,90.058 321.838 C 90.910 322.595,90.913 322.594,90.456 321.722 C 89.946 320.750,89.200 320.151,89.200 320.714 M91.200 326.714 C 91.200 326.913,91.586 327.419,92.058 327.838 C 92.910 328.595,92.913 328.594,92.456 327.722 C 91.946 326.750,91.200 326.151,91.200 326.714 M200.100 356.687 C 200.705 356.778,201.695 356.778,202.300 356.687 C 202.905 356.595,202.410 356.520,201.200 356.520 C 199.990 356.520,199.495 356.595,200.100 356.687 M226.826 359.431 C 227.086 359.744,227.557 360.000,227.873 360.000 C 228.677 360.000,228.184 359.341,227.183 359.080 C 226.503 358.902,226.439 358.965,226.826 359.431 M285.777 363.367 C 285.350 363.679,285.107 364.040,285.236 364.170 C 285.366 364.299,285.798 364.044,286.198 363.602 C 287.048 362.663,286.873 362.566,285.777 363.367 "
              stroke="none" fill="#08343c" fill-rule="evenodd"></path>
    </g>
</svg>