<svg xmlns="http://www.w3.org/2000/svg" viewBox="0 0 40 40">
    <defs>
        <defs>
            <style>
                .cls-1{fill:#e4ae3c;}
                .cls-2{fill:#efefef;}
                .cls-3{fill:#b4a467;}
                .cls-4{fill:#839a93;}
                .cls-5{fill:#438ecd;}
                .cls-6{fill:#353535;}
            </style>
        </defs>
    </defs>
    <path class="cls-2" d="M 29.845 18.288 C 29.845 11.303 24.13 9.271 24.13 9.271 L 24.13 16.891 L 20 20.1 L 15.875 16.891 L 15.875 9.271 C 15.875 9.271 10.16 11.303 10.16 18.288 C 10.16 25.273 15.875 27.178 15.875 27.178 L 15.875 35.306 C 15.875 37.211 17.653 37.211 17.653 37.211 L 22.352 37.211 C 22.352 37.211 24.13 37.211 24.13 35.306 C 24.13 35.298 24.13 27.178 24.13 27.178 C 24.13 27.178 29.845 25.273 29.845 18.288 Z"/>
    <path class="cls-6" d="M 28.829 18.796 C 28.829 13.254 25.146 10.922 25.146 10.922 L 25.146 17.526 L 20.008 21.463 L 14.859 17.526 L 14.859 10.922 C 14.859 10.922 11.176 13.254 11.176 18.796 C 11.176 24.339 16.891 26.543 16.891 26.543 L 16.891 34.925 C 16.891 36.195 18.161 36.195 18.161 36.195 L 21.844 36.195 C 21.844 36.195 23.114 36.195 23.114 34.925 C 23.114 34.919 23.114 26.543 23.114 26.543 C 23.114 26.543 28.829 24.339 28.829 18.796 Z"/>

    <path class="cls-2" transform="matrix(-1, 0, 0, -1, 14.605998992919922, 59.689998626708984)" d="M 4.065 57.404 C 4.065 57.404 2.541 57.404 2.541 55.88 L 2.541 54.991 C 2.541 53.467 4.065 53.467 4.065 53.467 L 7.367 53.467 C 7.367 53.467 8.129 53.467 8.129 52.705 L 8.129 30.226 C 8.129 29.464 7.367 29.464 7.367 29.464 L 4.065 29.464 C 4.065 29.464 2.541 29.464 2.541 27.94 L 2.541 26.924 C 2.541 25.4 4.065 25.4 4.065 25.4 L 10.542 25.4 C 10.542 25.4 12.066 25.4 12.066 26.924 L 12.066 55.88 C 12.066 57.404 10.542 57.404 10.542 57.404 L 4.065 57.404 Z"/>
    <path class="cls-1" style="stroke-width: 1; transform-origin: 7.175px 6.858px;" d="M 11.43 4.699 C 11.43 4.699 11.43 5.461 10.541 5.461 L 6.477 5.461 C 5.715 5.461 5.715 6.223 5.715 6.223 L 5.715 10.668 L 3.302 10.668 L 3.302 3.81 C 3.302 3.81 3.302 3.048 4.064 3.048 L 10.541 3.048 C 11.43 3.048 11.43 3.81 11.43 3.81 L 11.43 4.699 Z"/>
    <rect class="cls-4" x="3.302" y="18.288" width="2.413" height="7.62"/>
    <rect class="cls-3" x="3.302" y="10.668" width="2.413" height="7.62"/>
    <path class="cls-5" transform="matrix(-1, 0, 0, -1, 14.605000495910645, 59.69000244140625)" d="M 8.89 33.782 L 8.89 29.464 C 8.89 28.702 8.128 28.702 8.128 28.702 L 4.064 28.702 C 4.064 28.702 3.302 28.702 3.302 27.94 L 3.302 26.924 C 3.302 26.924 3.302 26.162 4.064 26.162 L 10.541 26.162 C 10.541 26.162 11.303 26.162 11.303 26.924 L 11.303 33.782 L 8.89 33.782 Z"/>

    <path class="cls-2" d="M 29.464 2.286 C 29.464 2.286 27.94 2.286 27.94 3.81 L 27.94 4.699 C 27.94 6.223 29.464 6.223 29.464 6.223 L 32.766 6.223 C 32.766 6.223 33.528 6.223 33.528 6.985 L 33.528 29.464 C 33.528 30.226 32.766 30.226 32.766 30.226 L 29.464 30.226 C 29.464 30.226 27.94 30.226 27.94 31.75 L 27.94 32.766 C 27.94 34.29 29.464 34.29 29.464 34.29 L 35.941 34.29 C 35.941 34.29 37.465 34.29 37.465 32.766 L 37.465 3.81 C 37.465 2.286 35.941 2.286 35.941 2.286 L 29.464 2.286 Z"/>
    <path class="cls-1" d="M 28.703 4.699 C 28.703 4.699 28.703 5.461 29.465 5.461 L 33.529 5.461 C 34.291 5.461 34.291 6.223 34.291 6.223 L 34.291 10.668 L 36.704 10.668 L 36.704 3.81 C 36.704 3.81 36.704 3.048 35.942 3.048 L 29.465 3.048 C 28.703 3.048 28.703 3.81 28.703 3.81 L 28.703 4.699 Z"/>
    <rect class="cls-3" x="34.29" y="10.668" width="2.413" height="7.62"/>
    <rect class="cls-4" x="34.29" y="18.288" width="2.413" height="7.62"/>
    <path class="cls-5" d="M 34.29 25.908 L 34.29 30.226 C 34.29 30.988 33.528 30.988 33.528 30.988 L 29.464 30.988 C 29.464 30.988 28.702 30.988 28.702 31.75 L 28.702 32.766 C 28.702 32.766 28.702 33.528 29.464 33.528 L 35.941 33.528 C 35.941 33.528 36.703 33.528 36.703 32.766 L 36.703 25.908 L 34.29 25.908 Z"/>
</svg>