<svg width="202" height="143" viewBox="0 0 202 143" fill="none" xmlns="http://www.w3.org/2000/svg">
<path d="M32.327 142.985H0V0H32.327V11.1263H11.2638V131.859H32.327V142.985Z" fill="#9CA2FA"/>
<path d="M201.422 142.985H169.095V131.859H190.161V11.1263H169.095V0H201.422V142.985Z" fill="#9CA2FA"/>
<path d="M53.7745 24.2651L50.6661 36.6792L78.6414 64.6545H36.0866L33.2593 75.8446H87.6557L91.3857 61.5461L53.7745 24.2651Z" fill="#9CA2FA"/>
<path d="M148.269 116.234L151.378 103.82L123.402 75.8445L165.957 75.8445L168.784 64.6544L114.388 64.6544L110.658 78.9529L148.269 116.234Z" fill="#9CA2FA"/>
<path d="M107.55 21.7578L82.061 121.226H93.8728L119.361 21.7578H107.55Z" fill="#9CA2FA"/>
</svg>
