<svg xmlns="http://www.w3.org/2000/svg" viewBox="0 0 80 80">
    <defs>
        <style>
            .cls-1{fill:none;}.cls-2{fill:#91e5d1;}.cls-3{fill:#7ec4b3;}.cls-4{fill:#bdefe6;}.cls-5{fill:#fff;}.cls-6{fill:#52a88e;}
        </style>
    </defs>
    <title>daochusvn</title>
    <g id="图层_2">
        <g id="图层_1-2">
            <rect class="cls-1" width="80" height="80"/>
            <path class="cls-2" d="M68.79,76.15H11.39V4.64l41-1.89,16.4,16.33Z"/>
            <path class="cls-3"
                  d="M68,16.12l.2,56.59A2.19,2.19,0,0,1,66,74.91H14.92a2.19,2.19,0,0,1-2.2-2.18V7.55a2.19,2.19,0,0,1,2.18-2.2h0l42.45-.08L54.31,2.13H15A5.15,5.15,0,0,0,9.86,7.3V73A5.16,5.16,0,0,0,15,78.15H65.87A5.17,5.17,0,0,0,71,73V19.26Z"/>
            <path class="cls-4" d="M54.34,14.67a4.58,4.58,0,0,0,4.57,4.59H71.05L54.34,2.13Z"/>
            <path class="cls-3"
                  d="M40.87,30.85H12.74a6.43,6.43,0,0,1-6.43-6.43h0V20.18a6.43,6.43,0,0,1,6.43-6.43H40.87a6.43,6.43,0,0,1,6.43,6.43h0v4.24a6.43,6.43,0,0,1-6.43,6.43Z"/>
            <path class="cls-5"
                  d="M20.55,24.48A3.3,3.3,0,0,1,20,26.26a3.39,3.39,0,0,1-1.49,1.23,5.63,5.63,0,0,1-2.33.45,5.27,5.27,0,0,1-2.66-.62,3.53,3.53,0,0,1-1.21-1.16,2.82,2.82,0,0,1-.46-1.43.93.93,0,0,1,.86-1h.12a.86.86,0,0,1,.6.23,1.81,1.81,0,0,1,.42.67,4.11,4.11,0,0,0,.44.86,2,2,0,0,0,.68.58,2.56,2.56,0,0,0,1.16.22,2.56,2.56,0,0,0,1.63-.45,1.36,1.36,0,0,0,.61-1.14,1.17,1.17,0,0,0-.33-.92,2.06,2.06,0,0,0-.85-.51q-.52-.18-1.41-.39a9.77,9.77,0,0,1-2-.64,3.11,3.11,0,0,1-1.26-1,2.58,2.58,0,0,1-.46-1.57,2.7,2.7,0,0,1,.49-1.6A3.07,3.07,0,0,1,14,17a6.09,6.09,0,0,1,2.19-.38,5.62,5.62,0,0,1,1.73.25,3.88,3.88,0,0,1,1.23.67,2.83,2.83,0,0,1,.7.87,2,2,0,0,1,.23.92,1.11,1.11,0,0,1-.28.71.93.93,0,0,1-.7.31.86.86,0,0,1-.58-.18,2.66,2.66,0,0,1-.42-.63,2.8,2.8,0,0,0-.72-.92,2,2,0,0,0-1.33-.35,2.31,2.31,0,0,0-1.38.38,1.06,1.06,0,0,0-.53.92.94.94,0,0,0,.18.56,1.49,1.49,0,0,0,.49.41,3.52,3.52,0,0,0,.63.27l1.06.29a15.67,15.67,0,0,1,1.66.46,5,5,0,0,1,1.28.64,2.69,2.69,0,0,1,.82.92A3,3,0,0,1,20.55,24.48Z"/>
            <path class="cls-5"
                  d="M23.86,18.11l2.47,7.31,2.48-7.36c.13-.39.22-.65.28-.8a.94.94,0,0,1,.33-.41.86.86,0,0,1,.6-.19,1.08,1.08,0,0,1,.92.53.86.86,0,0,1,.14.46A1.34,1.34,0,0,1,31,18l-.11.38-.13.37-2.64,7.13c-.1.27-.19.52-.29.77a3.27,3.27,0,0,1-.32.65,1.58,1.58,0,0,1-2,.46A1.35,1.35,0,0,1,25,27.3a3.09,3.09,0,0,1-.34-.65c-.09-.25-.19-.5-.28-.77l-2.59-7.07-.14-.37a2.45,2.45,0,0,1-.12-.41,2.2,2.2,0,0,1-.05-.37,1,1,0,0,1,.31-.69,1.07,1.07,0,0,1,.76-.31.94.94,0,0,1,.8.35A4.62,4.62,0,0,1,23.86,18.11Z"/>
            <path class="cls-5"
                  d="M35.51,18l4.25,6.44V18a1.42,1.42,0,0,1,.26-.92,1,1,0,0,1,1.49,0,1.37,1.37,0,0,1,.27.92v8.57c0,1-.4,1.44-1.19,1.44a1.91,1.91,0,0,1-.53-.1,1.43,1.43,0,0,1-.45-.26,5.34,5.34,0,0,1-.39-.44l-.35-.58-4.14-6.34v6.38a1.39,1.39,0,0,1-.29.92,1,1,0,0,1-.75.32.89.89,0,0,1-.74-.33,1.34,1.34,0,0,1-.29-.92V18.26a2.41,2.41,0,0,1,.12-.84,1.31,1.31,0,0,1,.47-.55,1.32,1.32,0,0,1,1.22-.11,1.14,1.14,0,0,1,.36.26,2.72,2.72,0,0,1,.34.42Z"/>
            <path class="cls-6"
                  d="M78.79,49,65.59,38.26a.72.72,0,0,0-1,0,.1.1,0,0,1,0,.05.82.82,0,0,0-.16.46v4a.71.71,0,0,1-.65.71c-17,1.69-19.22,15.73-19.33,22.37a.72.72,0,0,0,.71.73h0a.75.75,0,0,0,.66-.4c3.18-6.61,10-10.12,17.89-10.44a.74.74,0,0,1,.76.71h0v3.89a.73.73,0,0,0,.72.73.68.68,0,0,0,.45-.17l13.2-10.83a.71.71,0,0,0,.12-1l0,0Z"/>
        </g>
    </g>
</svg>