<svg xmlns="http://www.w3.org/2000/svg" width="40" height="40" fill="none" viewBox="0 0 40 40">
  <path fill="#fff" d="M15.667 31.407V19.5c-.327.193-.538.308-.567.324a1.75 1.75 0 0 1-2.36-.65c0 .001-2.215-3.846-2.224-3.868a1.753 1.753 0 0 1 .84-2.327c2.48-1.173 4.82-1.742 7.145-1.742.75 0 1.497.061 2.24.18 2.597.44 4.703 1.51 6.562 2.455 1.497.772 2.988 1.543 4.235 1.543.779 0 1.426-.286 2.042-.906a2.96 2.96 0 0 0 .862-2.093 2.958 2.958 0 0 0-2.95-2.956 2.94 2.94 0 0 0-1.756.581l-.384.293-1.392-1.392.424-.395A5.245 5.245 0 0 1 31.97 7.13c1.41 0 2.73.55 3.724 1.549a6.475 6.475 0 0 1 1.792 4.978c-.211 2.909-2.298 5.93-6.033 8.732-2.038 1.527-2.817 4.278-3.112 6.315l-.029.2-.147.135a9.049 9.049 0 0 1-2.712 1.706l-.552.225-.186-.569a3.35 3.35 0 0 0-3.192-2.317c-1.635 0-3.055 1.225-3.305 2.848l-.074.475h-2.478Z"/>
  <path fill="url(#a)" d="M36.041 8.356c-1.506-1.512-3.645-1.985-5.572-1.453C28.15 5.093 25.25 4 22.083 4H8v2H6v2h4v4H8v4h2v4h2v4H9.373v4H6v-2H4v4h2v2h4v2H8v2h14.083c7.567 0 13.701-6.15 13.701-13.737v-3.365c1.323-1.713 2.073-3.452 2.197-5.202a6.935 6.935 0 0 0-1.94-5.34Zm-19.817.795h5.859c3.609 0 6.647 2.278 7.9 5.455-.694-.26-1.48-.643-2.419-1.122-2.828-1.435-6.45-3.282-11.34-2.518V9.15Zm5.859 21.698h-3.354c.247-1.205 1.207-2.143 2.44-2.299a2.885 2.885 0 0 1 3.103 1.977c-.702.189-1.427.322-2.19.322Zm9.037-8.908c-2.178 1.633-3.01 4.468-3.33 6.682a8.495 8.495 0 0 1-2.546 1.605 3.915 3.915 0 0 0-3.188-2.67 3.912 3.912 0 0 0-4.39 3.29H16V20l.332-.28s2.127-1.454 3.088-2.312a.513.513 0 0 0 .034-.723.51.51 0 0 0-.721-.034c-1.527 1.393-3.899 2.683-3.899 2.683a1.191 1.191 0 0 1-1.612-.443s-2.184-3.78-2.201-3.816a1.197 1.197 0 0 1 .571-1.591c3.163-1.491 6.126-1.99 9.058-1.514 2.533.428 4.612 1.491 6.45 2.426 2.631 1.358 4.903 2.494 6.873.507A3.52 3.52 0 0 0 35 12.416a3.51 3.51 0 0 0-3.506-3.515 3.47 3.47 0 0 0-2.091.693l-.638-.64a4.698 4.698 0 0 1 6.537.121 5.894 5.894 0 0 1 1.626 4.541c-.196 2.747-2.204 5.62-5.808 8.325Z"/>
  <path fill="url(#b)" d="m27.595 17.998.003.002h-.004v-.002L26 17.113c-.002-.612.444-1.11.996-1.112.552-.002 1.002.492 1.004 1.104.001.353-.15.684-.405.895Z"/>
  <path fill="url(#c)" d="M4 34H2v-2h2v2Z"/>
  <path fill="url(#d)" d="M8 22H6v-2h2v2Z"/>
  <path fill="url(#e)" d="M2 14h2v2H2v-2Z"/>
  <path fill="url(#f)" d="M4 10h2v2H4v-2Z"/>
  <defs>
    <linearGradient id="a" x1="16.221" x2="19.571" y1="33.828" y2="7.389" gradientUnits="userSpaceOnUse">
      <stop stop-color="#209BC4"/>
      <stop offset="1" stop-color="#4DC9C0"/>
    </linearGradient>
    <linearGradient id="b" x1="-143.122" x2="-81.789" y1="311.092" y2="-154.114" gradientUnits="userSpaceOnUse">
      <stop stop-color="#209BC4"/>
      <stop offset="1" stop-color="#4DC9C0"/>
    </linearGradient>
    <linearGradient id="c" x1="256.36" x2="304.763" y1="27.014" y2="-379.953" gradientUnits="userSpaceOnUse">
      <stop stop-color="#209BC4"/>
      <stop offset="1" stop-color="#4DC9C0"/>
    </linearGradient>
    <linearGradient id="d" x1="185.36" x2="228.522" y1="191.68" y2="-171.223" gradientUnits="userSpaceOnUse">
      <stop stop-color="#209BC4"/>
      <stop offset="1" stop-color="#4DC9C0"/>
    </linearGradient>
    <linearGradient id="e" x1="311.988" x2="368.084" y1="330.389" y2="-141.313" gradientUnits="userSpaceOnUse">
      <stop stop-color="#209BC4"/>
      <stop offset="1" stop-color="#4DC9C0"/>
    </linearGradient>
    <linearGradient id="f" x1="19.209" x2="23.18" y1="35.864" y2="6.183" gradientUnits="userSpaceOnUse">
      <stop stop-color="#209BC4"/>
      <stop offset="1" stop-color="#4DC9C0"/>
    </linearGradient>
  </defs>
</svg>
