<svg xmlns="http://www.w3.org/2000/svg" xmlns:xlink="http://www.w3.org/1999/xlink" width="128" height="128" viewBox="0 0 64 64" fill="none">
<path d="M42 7L14 7C12.8954 7 12 7.89543 12 9L12 55C12 56.1046 12.8954 57 14 57L50 57C51.1046 57 52 56.1046 52 55L52 17L42 7ZM37.58 16.52C35.8907 16.068 34.1886 15.84 32.48 15.84L19.88 15.84L19.88 49.12L30.72 49.12L30.72 39.68L32.48 39.68C32.6661 39.68 32.9089 39.6743 33.2 39.66C33.7641 39.6323 34.3278 39.5793 34.9 39.51C36.7809 39.2823 38.3821 38.8711 39.7 38.28C39.8569 38.2096 40.0427 38.1222 40.27 38C40.7008 37.7684 41.1339 37.5122 41.55 37.23C42.922 36.2994 43.9851 35.2481 44.74 34.09C44.8329 33.9475 44.9311 33.7631 45.05 33.54C45.2693 33.1283 45.4694 32.6925 45.65 32.23C46.2279 30.7495 46.52 29.261 46.52 27.76C46.52 27.587 46.5087 27.3687 46.49 27.11C46.4546 26.6195 46.3981 26.1271 46.31 25.63C46.0193 23.989 45.4968 22.5911 44.74 21.43C44.6476 21.2882 44.5153 21.1182 44.36 20.92C44.0732 20.5537 43.7581 20.1918 43.41 19.84C42.2949 18.7131 41.0604 17.8502 39.7 17.24C39.5436 17.1699 39.3327 17.0825 39.08 16.99C38.6073 16.817 38.1127 16.6625 37.58 16.52Z" fill-rule="evenodd"  fill="#B4C4C8" >
</path>
<path d="M32.48 17.84C36.16 17.84 38.88 19.06 38.88 19.06C41.6 20.28 43.06 22.52 43.06 22.52C44.52 24.76 44.52 27.76 44.52 27.76C44.52 30.76 43.06 33 43.06 33C41.6 35.24 38.88 36.46 38.88 36.46C36.16 37.68 32.48 37.68 32.48 37.68L28.72 37.68L28.72 47.12L21.88 47.12L21.88 17.84L32.48 17.84ZM31.72 31.92C34.2 31.92 35.76 30.96 35.76 30.96C37.32 30 37.32 27.76 37.32 27.76C37.32 25.56 35.74 24.58 35.74 24.58C34.16 23.6 31.72 23.6 31.72 23.6L28.72 23.6L28.72 31.92L31.72 31.92Z"   fill="#07A2A8" >
</path>
</svg>
