<?xml version="1.0" encoding="UTF-8"?>
<svg width="42px" height="42px" viewBox="0 0 42 42" version="1.1" xmlns="http://www.w3.org/2000/svg" xmlns:xlink="http://www.w3.org/1999/xlink">
    <title>pluginIcon</title>
    <defs>
        <linearGradient x1="10.6077597%" y1="99.2877106%" x2="84.8503411%" y2="16.0137325%" id="linearGradient-1">
            <stop stop-color="#625CF6" stop-opacity="0.5" offset="0%"></stop>
            <stop stop-color="#6A64F6" stop-opacity="0.504999995" offset="0.249487208%"></stop>
            <stop stop-color="#8D88F8" stop-opacity="0.530799985" offset="1.53999999%"></stop>
            <stop stop-color="#ACA8FA" stop-opacity="0.559800029" offset="2.98999995%"></stop>
            <stop stop-color="#C6C4FC" stop-opacity="0.591899991" offset="4.60000001%"></stop>
            <stop stop-color="#DBDAFD" stop-opacity="0.628199995" offset="6.40999973%"></stop>
            <stop stop-color="#EBEBFE" stop-opacity="0.67049998" offset="8.51999968%"></stop>
            <stop stop-color="#F7F6FF" stop-opacity="0.722800016" offset="11.1400001%"></stop>
            <stop stop-color="#FDFDFF" stop-opacity="0.796199977" offset="14.8100004%"></stop>
            <stop stop-color="#FFFFFF" offset="25%"></stop>
        </linearGradient>
        <linearGradient x1="98.2399211%" y1="78.6540687%" x2="-23.9696324%" y2="29.6573848%" id="linearGradient-2">
            <stop stop-color="#625CF6" stop-opacity="0.5" offset="0%"></stop>
            <stop stop-color="#6A64F6" stop-opacity="0.504999995" offset="0.249487208%"></stop>
            <stop stop-color="#8D88F8" stop-opacity="0.530799985" offset="1.53999999%"></stop>
            <stop stop-color="#ACA8FA" stop-opacity="0.559800029" offset="2.98999995%"></stop>
            <stop stop-color="#C6C4FC" stop-opacity="0.591899991" offset="4.60000001%"></stop>
            <stop stop-color="#DBDAFD" stop-opacity="0.628199995" offset="6.40999973%"></stop>
            <stop stop-color="#EBEBFE" stop-opacity="0.67049998" offset="8.51999968%"></stop>
            <stop stop-color="#F7F6FF" stop-opacity="0.722800016" offset="11.1400001%"></stop>
            <stop stop-color="#FDFDFF" stop-opacity="0.796199977" offset="14.8100004%"></stop>
            <stop stop-color="#FFFFFF" offset="25%"></stop>
        </linearGradient>
        <linearGradient x1="49.7314067%" y1="0.0579536019%" x2="49.7298751%" y2="100.053322%" id="linearGradient-3">
            <stop stop-color="#625CF6" stop-opacity="0.5" offset="0%"></stop>
            <stop stop-color="#6A64F6" stop-opacity="0.504999995" offset="0.249487208%"></stop>
            <stop stop-color="#8D88F8" stop-opacity="0.530799985" offset="1.53999999%"></stop>
            <stop stop-color="#ACA8FA" stop-opacity="0.559800029" offset="2.98999995%"></stop>
            <stop stop-color="#C6C4FC" stop-opacity="0.591899991" offset="4.60000001%"></stop>
            <stop stop-color="#DBDAFD" stop-opacity="0.628199995" offset="6.40999973%"></stop>
            <stop stop-color="#EBEBFE" stop-opacity="0.67049998" offset="8.51999968%"></stop>
            <stop stop-color="#F7F6FF" stop-opacity="0.722800016" offset="11.1400001%"></stop>
            <stop stop-color="#FDFDFF" stop-opacity="0.796199977" offset="14.8100004%"></stop>
            <stop stop-color="#FFFFFF" offset="25%"></stop>
        </linearGradient>
        <linearGradient x1="92.8886116%" y1="24.5076751%" x2="7.13379681%" y2="75.4822957%" id="linearGradient-4">
            <stop stop-color="#625CF6" offset="0%"></stop>
            <stop stop-color="#6357F5" offset="16.3200006%"></stop>
            <stop stop-color="#6648F2" offset="36.2699986%"></stop>
            <stop stop-color="#6A2FED" offset="58.0299973%"></stop>
            <stop stop-color="#6B29EC" offset="62.470001%"></stop>
        </linearGradient>
        <linearGradient x1="0.0114243863%" y1="49.9954879%" x2="100.009525%" y2="49.9954879%" id="linearGradient-5">
            <stop stop-color="#625CF6" offset="0%"></stop>
            <stop stop-color="#625CF6" stop-opacity="0" offset="40.0000006%"></stop>
        </linearGradient>
        <linearGradient x1="75.0092983%" y1="5.4138414%" x2="25.010547%" y2="94.5751471%" id="linearGradient-6">
            <stop stop-color="#A7A5FC" offset="0%"></stop>
            <stop stop-color="#918DFA" stop-opacity="0.780499995" offset="8.78000036%"></stop>
            <stop stop-color="#7772F8" stop-opacity="0.476500005" offset="20.9399998%"></stop>
            <stop stop-color="#6862F6" stop-opacity="0.206400007" offset="31.7400008%"></stop>
            <stop stop-color="#625CF6" stop-opacity="0" offset="40.0000006%"></stop>
        </linearGradient>
    </defs>
    <g id="IDE-端插件优化" stroke="none" stroke-width="1" fill="none" fill-rule="evenodd">
        <g id="Artboard" transform="translate(-260.000000, -1431.000000)" fill-rule="nonzero">
            <g id="Group" transform="translate(260.000000, 1431.000000)">
                <g transform="translate(3.853954, 1.000217)" fill="#FFFFFF" id="Path">
                    <polygon points="11.4327383 0 14.2932289 5.0004008 11.4327383 10.0007395 34.3012846 10.0007395 31.4438697 14.9980034 9.14742153 14.9980034 6.0008818 9.49762775"></polygon>
                    <polygon points="0 9.99761546 5.71790553 9.99761546 16.8615159 29.4990575 13.7211278 34.9994642 2.85741794 34.9963583 5.71790553 29.9960197 11.4358111 29.9960197"></polygon>
                    <polygon points="14.2901475 34.9963462 17.1506443 39.996747 28.5833734 19.9983428 31.4407883 24.9956378 37.1586938 24.9956378 31.7299132 15.49801 25.4399095 15.5011189"></polygon>
                </g>
                <g transform="translate(3.853954, 1.000217)" id="Path">
                    <polygon fill="url(#linearGradient-1)" points="11.4327383 0 14.2932289 5.0004008 11.4327383 10.0007395 34.3012846 10.0007395 31.4438697 14.9980034 9.14742153 14.9980034 6.0008818 9.49762775"></polygon>
                    <polygon fill="url(#linearGradient-2)" points="2.85741794 34.9963614 5.71790553 29.9960227 11.4327353 29.9991285 0 10.0007243 5.71482973 10.0007243 16.8615159 29.4990605 13.7211278 34.9994672"></polygon>
                    <polygon fill="url(#linearGradient-3)" points="37.1617726 24.9987436 31.4438671 24.9987436 28.5864522 19.9983428 17.1506442 39.996747 14.2932263 34.999452 25.4399125 15.5011189 31.7299162 15.49801"></polygon>
                </g>
                <path d="M41.8708166,25.4957672 L37.014134,16.9982134 L36.4420359,15.9981705 L39.0134017,11.5009436 C39.1025998,11.3456526 39.1456609,11.1748014 39.1456609,11.0008755 C39.1456609,10.8269186 39.1025998,10.6560985 39.0134017,10.5008075 L36.1559868,5.50040671 C36.0667887,5.34511573 35.9437569,5.220914 35.7930428,5.13391999 C35.6454046,5.04695704 35.47316,5.0004008 35.2978396,5.0004008 L24.4340959,5.0004008 L21.8596543,0.500071138 C21.6843339,0.189488235 21.3552237,0 21.0015071,0 L15.2836016,0 C15.1082812,0 14.9360366,0.0465568587 14.7884291,0.133529128 C14.6407602,0.220501087 14.5146525,0.344702507 14.4254852,0.5 L9.56572684,9.00066553 L8.99362871,9.9976026 L3.84782131,9.9976026 C3.67250092,9.9976026 3.50025632,10.0441588 3.35261809,10.1311529 C3.20497986,10.2181158 3.07887221,10.3423175 2.98967411,10.4976085 L0.132257093,15.4980093 C0.0430562285,15.6533003 0,15.8241514 0,15.9980773 C0,16.1720343 0.0430657635,16.3428544 0.132257093,16.4981454 L5.56411571,25.9988789 L2.98967411,30.4992117 C2.90047294,30.6545027 2.85741794,30.8253228 2.85741794,30.9992797 C2.85741794,31.1731125 2.90048217,31.3439326 2.98967411,31.4992235 L5.84708898,36.4999039 C5.93628707,36.6551949 6.06239473,36.7791171 6.21003295,36.86608 C6.35767118,36.953043 6.52991578,36.9996303 6.70523618,36.9996303 L17.5658733,36.9996303 L20.1403149,41.499963 C20.3156353,41.810545 20.6447455,42 20.9984621,42 L26.7163676,42 C26.891688,42 27.0639326,41.9537233 27.2115709,41.8667603 C27.3592091,41.7797974 27.4853167,41.6555646 27.5745148,41.5002736 L33.0063713,31.9995711 L38.1521787,31.9995711 C38.3305749,31.9995711 38.4997437,31.949878 38.6473819,31.8660209 C38.7950201,31.7790579 38.9211278,31.6548251 39.0103259,31.4995341 L41.8677408,26.4990402 C41.9569389,26.3437492 42,26.172898 42,25.9989411 C42,25.8250152 41.9600146,25.6510582 41.8708166,25.4957672 Z M15.2867082,1.00021682 L18.1471681,6.00063004 L15.2867082,10.997894 L38.1552545,10.997894 L35.2978396,15.9951889 L13.0013914,15.9951889 L9.85482094,10.4948133 L15.2867082,1.00021682 Z M17.5751007,35.9995563 L6.71446357,35.9964505 L9.57492347,30.9961739 L15.292829,30.9961739 L3.85701794,10.9978318 L9.57492347,10.9978318 L12.4323691,15.9982326 L20.7216404,30.4992738 L17.5751007,35.9995563 Z M35.2947638,25.9958352 L32.437349,20.9954344 L21.0045829,40.9937144 L18.1440923,35.9933447 L21.0045829,30.9960808 L29.2938543,16.4981454 L35.5838887,16.4950396 L41.0126694,25.9926673 L35.2947638,25.9926673 L35.2947638,25.9958352 Z" id="Shape" fill="url(#linearGradient-4)"></path>
                <path d="M41.8708166,25.4957672 L37.014134,16.9982134 L36.4420359,15.9981705 L39.0134017,11.5009436 C39.1025998,11.3456526 39.1456609,11.1748014 39.1456609,11.0008755 C39.1456609,10.8269186 39.1025998,10.6560985 39.0134017,10.5008075 L36.1559868,5.50040671 C36.0667887,5.34511573 35.9437569,5.220914 35.7930428,5.13391999 C35.6454046,5.04695704 35.47316,5.0004008 35.2978396,5.0004008 L24.4340959,5.0004008 L21.8596543,0.500071138 C21.6843339,0.189488235 21.3552237,0 21.0015071,0 L15.2836016,0 C15.1082812,0 14.9360366,0.0465568587 14.7884291,0.133529128 C14.6407602,0.220501087 14.5146525,0.344702507 14.4254852,0.5 L9.56572684,9.00066553 L8.99362871,9.9976026 L3.84782131,9.9976026 C3.67250092,9.9976026 3.50025632,10.0441588 3.35261809,10.1311529 C3.20497986,10.2181158 3.07887221,10.3423175 2.98967411,10.4976085 L0.132257093,15.4980093 C0.0430562285,15.6533003 0,15.8241514 0,15.9980773 C0,16.1720343 0.0430657635,16.3428544 0.132257093,16.4981454 L5.56411571,25.9988789 L2.98967411,30.4992117 C2.90047294,30.6545027 2.85741794,30.8253228 2.85741794,30.9992797 C2.85741794,31.1731125 2.90048217,31.3439326 2.98967411,31.4992235 L5.84708898,36.4999039 C5.93628707,36.6551949 6.06239473,36.7791171 6.21003295,36.86608 C6.35767118,36.953043 6.52991578,36.9996303 6.70523618,36.9996303 L17.5658733,36.9996303 L20.1403149,41.499963 C20.3156353,41.810545 20.6447455,42 20.9984621,42 L26.7163676,42 C26.891688,42 27.0639326,41.9537233 27.2115709,41.8667603 C27.3592091,41.7797974 27.4853167,41.6555646 27.5745148,41.5002736 L33.0063713,31.9995711 L38.1521787,31.9995711 C38.3305749,31.9995711 38.4997437,31.949878 38.6473819,31.8660209 C38.7950201,31.7790579 38.9211278,31.6548251 39.0103259,31.4995341 L41.8677408,26.4990402 C41.9569389,26.3437492 42,26.172898 42,25.9989411 C42,25.8250152 41.9600146,25.6510582 41.8708166,25.4957672 Z M15.2867082,1.00021682 L18.1471681,6.00063004 L15.2867082,10.997894 L38.1552545,10.997894 L35.2978396,15.9951889 L13.0013914,15.9951889 L9.85482094,10.4948133 L15.2867082,1.00021682 Z M17.5751007,35.9995563 L6.71446357,35.9964505 L9.57492347,30.9961739 L15.292829,30.9961739 L3.85701794,10.9978318 L9.57492347,10.9978318 L12.4323691,15.9982326 L20.7216404,30.4992738 L17.5751007,35.9995563 Z M35.2947638,25.9958352 L32.437349,20.9954344 L21.0045829,40.9937144 L18.1440923,35.9933447 L21.0045829,30.9960808 L29.2938543,16.4981454 L35.5838887,16.4950396 L41.0126694,25.9926673 L35.2947638,25.9926673 L35.2947638,25.9958352 Z" id="Shape" fill="url(#linearGradient-5)"></path>
                <path d="M41.8708166,25.4957672 L37.014134,16.9982134 L36.4420359,15.9981705 L39.0134017,11.5009436 C39.1025998,11.3456526 39.1456609,11.1748014 39.1456609,11.0008755 C39.1456609,10.8269186 39.1025998,10.6560985 39.0134017,10.5008075 L36.1559868,5.50040671 C36.0667887,5.34511573 35.9437569,5.220914 35.7930428,5.13391999 C35.6454046,5.04695704 35.47316,5.0004008 35.2978396,5.0004008 L24.4340959,5.0004008 L21.8596543,0.500071138 C21.6843339,0.189488235 21.3552237,0 21.0015071,0 L15.2836016,0 C15.1082812,0 14.9360366,0.0465568587 14.7884291,0.133529128 C14.6407602,0.220501087 14.5146525,0.344702507 14.4254852,0.5 L9.56572684,9.00066553 L8.99362871,9.9976026 L3.84782131,9.9976026 C3.67250092,9.9976026 3.50025632,10.0441588 3.35261809,10.1311529 C3.20497986,10.2181158 3.07887221,10.3423175 2.98967411,10.4976085 L0.132257093,15.4980093 C0.0430562285,15.6533003 0,15.8241514 0,15.9980773 C0,16.1720343 0.0430657635,16.3428544 0.132257093,16.4981454 L5.56411571,25.9988789 L2.98967411,30.4992117 C2.90047294,30.6545027 2.85741794,30.8253228 2.85741794,30.9992797 C2.85741794,31.1731125 2.90048217,31.3439326 2.98967411,31.4992235 L5.84708898,36.4999039 C5.93628707,36.6551949 6.06239473,36.7791171 6.21003295,36.86608 C6.35767118,36.953043 6.52991578,36.9996303 6.70523618,36.9996303 L17.5658733,36.9996303 L20.1403149,41.499963 C20.3156353,41.810545 20.6447455,42 20.9984621,42 L26.7163676,42 C26.891688,42 27.0639326,41.9537233 27.2115709,41.8667603 C27.3592091,41.7797974 27.4853167,41.6555646 27.5745148,41.5002736 L33.0063713,31.9995711 L38.1521787,31.9995711 C38.3305749,31.9995711 38.4997437,31.949878 38.6473819,31.8660209 C38.7950201,31.7790579 38.9211278,31.6548251 39.0103259,31.4995341 L41.8677408,26.4990402 C41.9569389,26.3437492 42,26.172898 42,25.9989411 C42,25.8250152 41.9600146,25.6510582 41.8708166,25.4957672 Z M15.2867082,1.00021682 L18.1471681,6.00063004 L15.2867082,10.997894 L38.1552545,10.997894 L35.2978396,15.9951889 L13.0013914,15.9951889 L9.85482094,10.4948133 L15.2867082,1.00021682 Z M17.5751007,35.9995563 L6.71446357,35.9964505 L9.57492347,30.9961739 L15.292829,30.9961739 L3.85701794,10.9978318 L9.57492347,10.9978318 L12.4323691,15.9982326 L20.7216404,30.4992738 L17.5751007,35.9995563 Z M35.2947638,25.9958352 L32.437349,20.9954344 L21.0045829,40.9937144 L18.1440923,35.9933447 L21.0045829,30.9960808 L29.2938543,16.4981454 L35.5838887,16.4950396 L41.0126694,25.9926673 L35.2947638,25.9926673 L35.2947638,25.9958352 Z" id="Shape" fill="url(#linearGradient-6)"></path>
            </g>
        </g>
    </g>
</svg>