<svg width="40" height="40" viewBox="0 0 40 40" fill="none" xmlns="http://www.w3.org/2000/svg">
<path fill-rule="evenodd" clip-rule="evenodd" d="M28.384 20.1161L26.6162 21.8839L28.4767 23.7444C27.4758 24.2713 26.629 25.0516 26.0218 26H23V28.5H25.0764C25.0261 28.826 25 29.1599 25 29.5V30.75H23V33.25H25V33.5C25 34.1978 25.11 34.8699 25.3135 35.5H23V38H26.8096C27.9925 39.2327 29.6566 40 31.5 40C33.3434 40 35.0075 39.2327 36.1904 38H40V35.5H37.6865C37.89 34.8699 38 34.1978 38 33.5V33.25H40V30.75H38V29.5C38 29.1599 37.9739 28.826 37.9236 28.5H40V26H36.9782C36.371 25.0516 35.5243 24.2713 34.5234 23.7445L36.384 21.8839L34.6162 20.1161L31.7284 23.0039C31.6526 23.0013 31.5764 23 31.5 23C31.4236 23 31.3475 23.0013 31.2718 23.0039L28.384 20.1161ZM34 28.5V30.75H29V28.5H34ZM34 35.5V33.25H29V35.5H34Z" fill="#8F989D"/>
<path d="M21 37.0045V32.0411C20.6954 32.2193 20.3932 32.3862 20.0946 32.5411C18.1388 33.5587 16.8627 33.9176 15.0189 34.4362C13.7502 34.793 12.2127 35.2254 10 36C9.33361 36.2332 7 37 7 37H10C10 37 17.3997 37.0156 21 37.0045Z" fill="#6CC149"/>
<path d="M21 28.776C19.8667 29.5102 18.7371 30.1009 17.6455 30.5086C13.5804 32.1601 9.33659 33.3318 5 34C3.80048 33.0297 2.8228 31.8136 2.13282 30.4336C1.44283 29.0536 1.05655 27.5418 1 26C1.06937 23.5587 1.87996 21.1963 3.32408 19.2267C4.7682 17.2572 6.77746 15.7736 9.08488 14.9733C11.9981 13.8388 14.2118 13.4043 16.7598 12.9043C18.0441 12.6522 19.4134 12.3835 21 12C26.2286 10.6714 32.6027 6.96923 36 2C37.8616 7.82423 38.872 13.8868 39 20C39 20.5493 38.9862 21.0922 38.9568 21.6283L36.0304 18.7019C35.2494 17.9209 33.983 17.9209 33.202 18.7019L32.2205 19.6834C33.3277 17.2573 34 14.6581 34 12C33.3644 14.3306 32.081 16.8704 30.4119 19.3156L29.7982 18.7019C29.0171 17.9209 27.7508 17.9209 26.9698 18.7019L25.202 20.4697C24.4209 21.2507 24.421 22.5171 25.202 23.2981L25.4417 23.5378C25.2953 23.6866 25.1543 23.8408 25.0191 24H23C21.8954 24 21 24.8954 21 26V28.776Z" fill="#6CC149"/>
</svg>
