<svg xmlns="http://www.w3.org/2000/svg" xmlns:xlink="http://www.w3.org/1999/xlink" width="128" height="128" viewBox="0 0 64 64" fill="none">
<path d="M42 7L14 7C12.8954 7 12 7.89543 12 9L12 55C12 56.1046 12.8954 57 14 57L50 57C51.1046 57 52 56.1046 52 55L52 17L42 7ZM38.88 19.06C38.88 19.06 36.16 17.84 32.48 17.84L21.88 17.84L21.88 47.12L28.72 47.12L28.72 37.68L32.48 37.68C32.48 37.68 36.16 37.68 38.88 36.46C38.88 36.46 41.6 35.24 43.06 33C43.06 33 44.52 30.76 44.52 27.76C44.52 27.76 44.52 24.76 43.06 22.52C43.06 22.52 41.6 20.28 38.88 19.06ZM35.76 30.96C35.76 30.96 34.2 31.92 31.72 31.92L28.72 31.92L28.72 23.6L31.72 23.6C31.72 23.6 34.16 23.6 35.74 24.58C35.74 24.58 37.32 25.56 37.32 27.76C37.32 27.76 37.32 30 35.76 30.96Z" fill-rule="evenodd"  fill="#AFB1B3" >
</path>
</svg>
