<svg width="16" height="16" viewBox="0 0 16 16" fill="none" xmlns="http://www.w3.org/2000/svg"><defs><linearGradient x1="7.758" y1="13.697" x2="120.537" y2="109.821" id="a" gradientTransform="matrix(.0865 0 0 .07334 .26 1.414)" gradientUnits="userSpaceOnUse"><stop stop-color="#6CCD45" offset="0%"/><stop stop-color="#6CCD45" offset="100%"/></linearGradient><linearGradient x1="38.732" y1="281.517" x2="190.56" y2="141.661" id="b" gradientTransform="matrix(.07832 0 0 .04882 .266 1.415)" gradientUnits="userSpaceOnUse"><stop stop-color="#6CCD45" offset="0%"/><stop stop-color="#6CCD45" offset="100%"/></linearGradient><linearGradient x1="65.594" y1="177.899" x2="148.764" y2="86.018" id="c" gradientTransform="matrix(.0518 0 0 .07382 .266 1.415)" gradientUnits="userSpaceOnUse"><stop stop-color="#6CCD45" offset="0%"/><stop stop-color="#6CCD45" offset="100%"/></linearGradient></defs><path d="m11.448 9.941-8.61-8.08A1.511 1.63 0 1 0 1.076 4.48l9.685 6.488.044.03a.585.632 0 1 0 .643-1.056z" fill="url(#a)"/><path d="M15.519 9.024a1.662 1.788 0 0 0-2.524-1.457l-9.402 5.755-.016.01a.843.907 0 1 0 .657 1.67l10.244-4.251.026-.012a1.662 1.788 0 0 0 1.015-1.715" fill="url(#b)"/><path d="M7.947 8.756a.455.49 0 0 0-.773-.512L3.205 13.66l-.008.018a.843.907 0 1 0 1.46.899L7.92 8.805z" fill="url(#c)"/><path d="M5.266 11.783c-.476-.103-.86-.455-1.075-.987l-.055-.135.361-.28c.2-.153.38-.293.403-.311.029-.023.082.046.174.228.152.297.289.411.454.38.14-.028.293-.185.336-.344.021-.078.035-.914.035-2.1v-1.97h1.096l-.01 2.207-.01 2.206-.081.198c-.234.566-.66.885-1.234.925-.13.01-.307.002-.394-.017m2.856-2.781V6.255l1.014.026c.558.014 1.083.041 1.168.06.392.088.718.35.894.717.07.146.08.224.08.586 0 .478-.02.54-.303.878a2 2 0 0 0-.173.227c0 .01.096.07.213.13.298.155.474.332.607.611.106.22.116.274.127.65.011.393.007.42-.094.644-.135.297-.34.525-.597.665-.415.226-.525.24-2.152.281l-.784.02zm1.975 1.797c.367-.083.529-.298.529-.697 0-.277-.039-.402-.17-.547-.173-.19-.33-.238-.791-.24H9.25v1.56l.344-.02c.19-.01.416-.036.503-.056m-.31-2.452a.665.665 0 0 0 .435-.726.5.5 0 0 0-.163-.274c-.142-.139-.193-.155-.588-.19l-.22-.02V8.44l.185-.019c.101-.01.26-.044.35-.073z"/><path d="M5.266 11.783c-.476-.103-.86-.455-1.075-.987l-.055-.135.361-.28c.2-.153.38-.293.403-.311.029-.023.082.046.174.228.152.297.289.411.454.38.14-.028.293-.185.336-.344.021-.078.035-.914.035-2.1v-1.97h1.096l-.01 2.207-.01 2.206-.081.198c-.234.566-.66.885-1.234.925-.13.01-.307.002-.394-.017"/><path d="M5.266 11.783c-.476-.103-.86-.455-1.075-.987l-.055-.135.361-.28c.2-.153.38-.293.403-.311.029-.023.082.046.174.228.152.297.289.411.454.38.14-.028.293-.185.336-.344.021-.078.035-.914.035-2.1v-1.97h1.096l-.01 2.207-.01 2.206-.081.198c-.234.566-.66.885-1.234.925-.13.01-.307.002-.394-.017m2.856-2.781V6.255l1.014.026c.558.014 1.083.041 1.168.06.392.088.718.35.894.717.07.146.08.224.08.586 0 .478-.02.54-.303.878a2 2 0 0 0-.173.227c0 .01.096.07.213.13.298.155.474.332.607.611.106.22.116.274.127.65.011.393.007.42-.094.644-.135.297-.34.525-.597.665-.415.226-.525.24-2.152.281l-.784.02zm1.975 1.797c.367-.083.529-.298.529-.697 0-.277-.039-.402-.17-.547-.173-.19-.33-.238-.791-.24H9.25v1.56l.344-.02c.19-.01.416-.036.503-.056m-.31-2.452a.665.665 0 0 0 .435-.726.5.5 0 0 0-.163-.274c-.142-.139-.193-.155-.588-.19l-.22-.02V8.44l.185-.019c.101-.01.26-.044.35-.073z"/><path d="M8.122 9.002V6.255l1.014.026c.558.014 1.083.041 1.168.06.392.088.718.35.894.717.07.146.08.224.08.586 0 .478-.02.54-.303.878a2 2 0 0 0-.173.227c0 .01.096.07.213.13.298.155.474.332.607.611.106.22.116.274.127.65.011.393.007.42-.094.644-.135.297-.34.525-.597.665-.415.226-.525.24-2.152.281l-.784.02zm1.975 1.797c.367-.083.529-.298.529-.697 0-.277-.039-.402-.17-.547-.173-.19-.33-.238-.791-.24H9.25v1.56l.344-.02c.19-.01.416-.036.503-.056m-.31-2.452a.665.665 0 0 0 .435-.726.5.5 0 0 0-.163-.274c-.142-.139-.193-.155-.588-.19l-.22-.02V8.44l.185-.019c.101-.01.26-.044.35-.073zm-4.521 3.436c-.476-.103-.86-.455-1.075-.987l-.055-.135.361-.28c.2-.153.38-.293.403-.311.029-.023.082.046.174.228.152.297.289.411.454.38.14-.028.293-.185.336-.344.021-.078.035-.914.035-2.1v-1.97h1.096l-.01 2.207-.01 2.206-.081.198c-.234.566-.66.885-1.234.925-.13.01-.307.002-.394-.017"/><path d="m3.47 7.383 1.05 1.043h1.703a.373.373 0 0 0 .374-.372V4.146L3.471 7.254a.09.09 0 0 0 0 .13z" fill="#235dc1"/><path d="M.8 3.039V4.73l1.05 1.042a.09.09 0 0 0 .13 0l3.128-3.108H1.174A.375.375 0 0 0 .8 3.04z" fill="#3b6ec6"/><path d="M4.737 1.144 2.212 4.983a.33.33 0 0 0 .043.412l1.617 1.607c.11.11.285.127.415.043l3.864-2.511a.87.87 0 0 0 .394-.725V1.133A.384.384 0 0 0 8.16.75H5.468a.88.88 0 0 0-.73.393z" fill="#5d8de4"/><path d="M1.368 7.898V6.542H.8v1.892h1.934v-.536z" fill="#9fbbf0"/><path d="M6.607 3.595a.96.96 0 0 0 .962-.956.96.96 0 0 0-.962-.955.96.96 0 0 0-.962.955c0 .528.43.956.962.956" fill="#adc5f2"/><path d="M4.885 3.92 2.827 5.964l.475.471 2.057-2.044z" fill="#6c9aee"/><path d="m2.892 6.842.409-.406-.475-.472-.408.406z" fill="#88acef"/><path d="M.283 10.995s-.167-.127.034-.298l.469-.443s.134-.149.276-.019l4.326 3.46v1.66s-.002.26-.319.232z" fill="#2489ca"/><path d="M1.398 12.065.283 13.136s-.114.09 0 .251l.518.498s.123.14.305-.02l1.182-.947z" fill="#1070b3"/><path d="m3.356 12.074 2.045-1.65-.013-1.65s-.088-.36-.379-.173l-2.721 2.617z" fill="#0877b9"/><path d="M5.07 15.59c.118.128.262.086.262.086l1.594-.83c.204-.147.175-.33.175-.33V9.563c0-.218-.211-.293-.211-.293l-1.381-.704c-.302-.197-.5.036-.5.036s.254-.194.379.172v6.552q0 .069-.027.13c-.037.077-.116.15-.305.119z" fill="#3c99d4"/><path d="M15.211 1.013A1.29 1.29 0 0 0 13.35.979a.14.14 0 0 0-.04.1.14.14 0 0 0 .04.098l.161.174a.123.123 0 0 0 .168.012.74.74 0 0 1 1.058.101.84.84 0 0 1-.052 1.119C13.62 3.702 12.202.564 8.98 2.18a.45.45 0 0 0-.228.28.48.48 0 0 0 .04.367l.553 1.005c.12.219.383.295.592.171l.013-.007-.01.007.242-.142a5.7 5.7 0 0 0 .771-.606.13.13 0 0 1 .176-.006c.027.024.043.06.044.098a.14.14 0 0 1-.039.1 6 6 0 0 1-.814.645h-.009l-.245.145a.66.66 0 0 1-.339.093.69.69 0 0 1-.607-.367l-.523-.95c-1 .75-1.613 2.189-1.28 4.012a.13.13 0 0 0 .124.11h.59a.13.13 0 0 0 .13-.123c.057-.457.427-.798.864-.798.438 0 .807.341.865.798a.13.13 0 0 0 .125.118h.577a.13.13 0 0 0 .125-.118c.058-.457.427-.798.865-.798.437 0 .807.341.864.798a.13.13 0 0 0 .126.118h.572c.07 0 .127-.06.128-.133.013-.85.231-1.827.851-2.316 2.15-1.694 1.585-3.145 1.087-3.67zM13.02 3.57l-.41-.216c0-.128.084-.238.202-.265a.254.254 0 0 1 .289.153.28.28 0 0 1-.081.33z" fill="#6e6e6e" fill-rule="evenodd"/><path fill-rule="evenodd" clip-rule="evenodd" stroke-width=".21" stroke="#2684ff" d="M8.832 9.276q-.276.36-.454.782l.503.85c.198.334.198.75 0 1.084l-.503.849q.178.422.454.782l.985-.01a1.06 1.06 0 0 1 .939.542l.484.859a3.6 3.6 0 0 0 .904 0l.483-.86c.19-.338.551-.546.94-.542l.985.01q.275-.359.453-.781l-.503-.849a1.07 1.07 0 0 1 0-1.085l.503-.849a3.6 3.6 0 0 0-.453-.782l-.986.011a1.07 1.07 0 0 1-.939-.542l-.483-.86a3.6 3.6 0 0 0-.904 0l-.484.86c-.19.338-.55.546-.939.542Zm4.447 2.174a1.587 1.587 0 1 1-3.174 0 1.587 1.587 0 0 1 3.174 0M9.824 8.688a.47.47 0 0 0 .41-.237l.52-.924a.44.44 0 0 1 .315-.222 4.2 4.2 0 0 1 1.245 0 .44.44 0 0 1 .315.222l.52.924c.084.148.24.24.41.237l1.06-.012a.44.44 0 0 1 .35.161 4.2 4.2 0 0 1 .624 1.08.44.44 0 0 1-.035.382l-.54.913a.47.47 0 0 0 0 .475l.54.913a.44.44 0 0 1 .035.383 4.2 4.2 0 0 1-.624 1.079.44.44 0 0 1-.35.16l-1.06-.011a.47.47 0 0 0-.41.237l-.52.924a.44.44 0 0 1-.315.222 4.2 4.2 0 0 1-1.245 0 .44.44 0 0 1-.315-.222l-.52-.924a.47.47 0 0 0-.41-.237l-1.06.012a.44.44 0 0 1-.35-.161 4.2 4.2 0 0 1-.624-1.08.44.44 0 0 1 .036-.382l.54-.913a.47.47 0 0 0 0-.475l-.54-.913a.44.44 0 0 1-.036-.383 4.2 4.2 0 0 1 .624-1.079.44.44 0 0 1 .35-.16Zm2.856 2.762a.988.988 0 1 1-1.977 0 .988.988 0 0 1 1.977 0" fill="#2684ff"/><path style="fill:#ff0;stroke:#969696;stroke-width:.00538988" d="M11.492 15.029a2 2 0 0 1-.227-.02c-.021-.008-.088-.117-.265-.431a17 17 0 0 0-.287-.498 1.1 1.1 0 0 0-.487-.395c-.192-.074-.205-.075-.828-.071l-.565.004-.079-.112a3.6 3.6 0 0 1-.292-.496c-.064-.13-.076-.162-.066-.184.006-.014.122-.212.257-.439s.258-.439.273-.47a1.1 1.1 0 0 0-.003-.942 24 24 0 0 0-.27-.464 25 25 0 0 1-.256-.437c-.022-.046.167-.409.346-.664l.09-.13.524.006c.642.009.72 0 .935-.101a1.14 1.14 0 0 0 .42-.366A12 12 0 0 0 11 8.322c.176-.314.243-.424.264-.432.072-.027.682-.03.83-.006l.048.009.243.43c.133.237.26.46.284.495a1.1 1.1 0 0 0 .639.444c.105.026.12.027.674.023l.568-.003.058.078c.135.184.383.63.383.69 0 .011-.115.215-.255.452-.281.475-.315.54-.353.68a1.3 1.3 0 0 0 0 .535c.038.14.072.205.353.68.14.237.255.44.255.453 0 .06-.248.505-.383.688l-.058.08-.568-.004c-.554-.004-.57-.003-.674.023a1.1 1.1 0 0 0-.638.443c-.024.036-.152.259-.285.495l-.243.431-.048.008a4.5 4.5 0 0 1-.602.015zm.488-2.015a1.6 1.6 0 0 0 1.26-1.192c.03-.12.032-.146.032-.372 0-.227-.003-.254-.033-.373a1.56 1.56 0 0 0-.41-.735 1.58 1.58 0 0 0-.855-.459 1.9 1.9 0 0 0-.597.006 1.56 1.56 0 0 0-.807.436 1.6 1.6 0 0 0-.442.818c-.03.138-.03.475 0 .613q.106.477.43.806c.136.138.241.215.401.298.185.095.384.155.587.177.088.01.332-.004.434-.023z"/></svg>