<?xml version="1.0" standalone="no"?>
<!DOCTYPE svg PUBLIC "-//W3C//DTD SVG 20010904//EN"
 "http://www.w3.org/TR/2001/REC-SVG-20010904/DTD/svg10.dtd">
<svg version="1.0" xmlns="http://www.w3.org/2000/svg"
 width="126.000000pt" height="122.000000pt" viewBox="0 0 126.000000 122.000000"
 preserveAspectRatio="xMidYMid meet">
<metadata>
Created by potrace 1.16, written by Peter Selinger 2001-2019
</metadata>
<g transform="translate(0.000000,122.000000) scale(0.100000,-0.100000)"
fill="#000000" stroke="none">
<path d="M654 1169 c-17 -5 -42 -20 -55 -33 -13 -13 -41 -31 -61 -39 -100 -42
-189 -177 -196 -296 -3 -52 -12 -83 -43 -146 -43 -88 -59 -155 -59 -252 0 -55
-4 -70 -25 -95 -54 -65 -8 -147 77 -139 10 1 32 -9 50 -22 18 -14 51 -34 73
-45 44 -22 152 -45 166 -36 5 3 39 -2 75 -11 54 -14 78 -14 137 -5 141 21 154
30 208 133 19 38 29 70 27 90 -3 30 -6 32 -48 35 -44 3 -80 24 -80 47 0 6 -13
24 -30 40 -16 16 -30 32 -30 36 0 4 23 10 50 14 82 11 137 74 110 125 -8 15
-6 36 10 86 11 37 20 94 20 130 0 51 5 70 25 100 27 40 31 67 14 111 -25 65
-86 98 -155 83 -45 -10 -68 0 -107 46 -16 19 -44 38 -65 44 -42 11 -46 11 -88
-1z m-92 -141 l3 -42 108 -33 c82 -24 114 -30 128 -23 20 11 32 46 32 92 0 39
19 35 74 -14 62 -58 93 -125 93 -207 0 -85 -36 -218 -61 -224 -26 -7 -24 -32
4 -52 22 -16 22 -16 3 -30 -23 -17 -62 -20 -71 -5 -10 16 -22 12 -28 -10 -4
-16 -14 -20 -52 -20 -44 0 -51 4 -118 66 -94 86 -136 107 -212 108 l-59 1 -18
45 c-21 57 -23 149 -3 198 28 64 76 131 118 162 22 16 44 30 48 30 4 0 9 -19
11 -42z m-192 -381 c14 -30 14 -34 -5 -60 -30 -42 -27 -109 5 -141 38 -37 184
-106 250 -118 l59 -10 -46 -32 c-72 -50 -97 -113 -69 -177 6 -15 1 -15 -45 -7
-193 35 -283 192 -238 410 11 55 57 168 68 168 3 0 13 -15 21 -33z"/>
</g>
</svg>
