<svg width="1080" height="1080" viewBox="0 0 1080 1080" fill="none" xmlns="http://www.w3.org/2000/svg">
<rect width="1080" height="1080" fill="#0A0A0A"/>
<path d="M674.517 390.983C674.517 360.407 662.487 333.834 638.427 311.265C615.096 288.696 581.923 277.412 538.906 277.412C502.452 277.412 473.653 285.056 452.509 300.345C431.366 314.905 420.794 334.926 420.794 360.407C420.794 373.511 423.346 385.523 428.449 396.444C433.553 406.636 442.302 416.1 454.697 424.837C467.82 432.845 484.589 440.125 505.004 446.677C526.147 453.229 552.759 459.418 584.839 465.242C665.039 479.802 726.282 504.191 768.569 538.408C810.856 572.625 832 623.223 832 690.201V703.305C832 738.978 825.438 771.375 812.315 800.496C799.92 828.889 781.693 853.277 757.633 873.662C733.573 894.047 704.409 909.699 670.142 920.619C635.875 931.54 597.233 937 554.217 937C503.91 937 459.436 930.084 420.794 916.251C382.881 901.691 351.166 882.034 325.648 857.282C300.13 831.801 280.809 802.316 267.685 768.827C254.562 734.61 248 697.481 248 657.44V624.679H392.36V650.887C392.36 696.753 405.483 733.518 431.73 761.183C458.707 788.119 500.265 801.588 556.404 801.588C600.15 801.588 632.594 792.124 653.738 773.195C674.881 754.266 685.453 731.698 685.453 705.489C685.453 693.113 683.266 681.464 678.891 670.544C674.517 658.896 666.861 648.703 655.925 639.967C644.989 630.503 630.042 622.13 611.086 614.85C592.13 607.57 568.07 601.382 538.906 596.286C500.265 589.734 464.904 581.361 432.824 571.169C400.744 560.249 372.674 546.052 348.614 528.58C325.283 511.107 307.056 489.266 293.933 463.058C280.809 436.849 274.247 404.816 274.247 366.959V360.407C274.247 329.102 280.444 300.345 292.839 274.136C305.963 247.199 323.825 223.902 346.427 204.246C369.758 184.589 397.463 169.301 429.543 158.38C462.352 147.46 498.806 142 538.906 142C584.11 142 624.21 148.552 659.206 161.657C694.202 174.033 723.366 191.141 746.697 212.982C770.757 234.823 788.619 259.94 800.285 288.332C812.679 316.725 818.876 346.574 818.876 377.879V417.192H674.517V390.983Z" fill="#F1F1F1"/>
</svg>
